<svg width="435" height="150" viewBox="0 0 435 150" fill="none" xmlns="http://www.w3.org/2000/svg">
<path fill-rule="evenodd" clip-rule="evenodd" d="M100 37H0V137H100V37ZM75 62H25V112H75V62Z" fill="url(#paint0_linear_81_21)"/>
<path d="M149.848 96.792C146.152 96.792 142.837 96.176 139.904 94.944C136.971 93.6533 134.653 91.8933 132.952 89.664C131.251 87.376 130.312 84.7653 130.136 81.832H138.408C138.643 84.2373 139.757 86.2027 141.752 87.728C143.805 89.2533 146.475 90.016 149.76 90.016C152.811 90.016 155.216 89.3413 156.976 87.992C158.736 86.6427 159.616 84.9413 159.616 82.888C159.616 80.776 158.677 79.2213 156.8 78.224C154.923 77.168 152.019 76.1413 148.088 75.144C144.509 74.2053 141.576 73.2667 139.288 72.328C137.059 71.3307 135.123 69.8933 133.48 68.016C131.896 66.08 131.104 63.5573 131.104 60.448C131.104 57.984 131.837 55.7253 133.304 53.672C134.771 51.6187 136.853 50.0053 139.552 48.832C142.251 47.6 145.331 46.984 148.792 46.984C154.131 46.984 158.443 48.3333 161.728 51.032C165.013 53.7307 166.773 57.4267 167.008 62.12H159C158.824 59.5973 157.797 57.5733 155.92 56.048C154.101 54.5227 151.637 53.76 148.528 53.76C145.653 53.76 143.365 54.376 141.664 55.608C139.963 56.84 139.112 58.4533 139.112 60.448C139.112 62.032 139.611 63.352 140.608 64.408C141.664 65.4053 142.955 66.2267 144.48 66.872C146.064 67.4587 148.235 68.1333 150.992 68.896C154.453 69.8347 157.269 70.7733 159.44 71.712C161.611 72.592 163.459 73.9413 164.984 75.76C166.568 77.5787 167.389 79.9547 167.448 82.888C167.448 85.528 166.715 87.904 165.248 90.016C163.781 92.128 161.699 93.8 159 95.032C156.36 96.2053 153.309 96.792 149.848 96.792ZM175.761 71.712C175.761 66.784 176.758 62.472 178.753 58.776C180.747 55.0213 183.475 52.1173 186.937 50.064C190.457 48.0107 194.387 46.984 198.729 46.984C202.894 46.984 206.531 47.9227 209.641 49.8C212.809 51.6187 215.126 53.8773 216.593 56.576V47.776H224.689V118.88H216.593V87.112C215.067 89.8107 212.721 92.0987 209.553 93.976C206.385 95.8533 202.689 96.792 198.465 96.792C194.241 96.792 190.398 95.736 186.937 93.624C183.475 91.512 180.747 88.5493 178.753 84.736C176.758 80.9227 175.761 76.5813 175.761 71.712ZM216.593 71.8C216.593 68.1627 215.859 64.9947 214.393 62.296C212.926 59.5973 210.931 57.544 208.409 56.136C205.945 54.6693 203.217 53.936 200.225 53.936C197.233 53.936 194.505 54.64 192.041 56.048C189.577 57.456 187.611 59.5093 186.145 62.208C184.678 64.9067 183.945 68.0747 183.945 71.712C183.945 75.408 184.678 78.6347 186.145 81.392C187.611 84.0907 189.577 86.1733 192.041 87.64C194.505 89.048 197.233 89.752 200.225 89.752C203.217 89.752 205.945 89.048 208.409 87.64C210.931 86.1733 212.926 84.0907 214.393 81.392C215.859 78.6347 216.593 75.4373 216.593 71.8ZM280.989 47.776V96H272.981V88.872C271.456 91.336 269.315 93.272 266.557 94.68C263.859 96.0293 260.867 96.704 257.581 96.704C253.827 96.704 250.453 95.9413 247.461 94.416C244.469 92.832 242.093 90.4853 240.333 87.376C238.632 84.2667 237.781 80.4827 237.781 76.024V47.776H245.701V74.968C245.701 79.72 246.904 83.3867 249.309 85.968C251.715 88.4907 255 89.752 259.165 89.752C263.448 89.752 266.821 88.432 269.285 85.792C271.749 83.152 272.981 79.3093 272.981 74.264V47.776H280.989ZM291.518 71.712C291.518 66.784 292.516 62.472 294.51 58.776C296.505 55.0213 299.233 52.1173 302.694 50.064C306.214 48.0107 310.116 46.984 314.398 46.984C318.622 46.984 322.289 47.8933 325.398 49.712C328.508 51.5307 330.825 53.8187 332.35 56.576V47.776H340.446V96H332.35V87.024C330.766 89.84 328.39 92.1867 325.222 94.064C322.113 95.8827 318.476 96.792 314.31 96.792C310.028 96.792 306.156 95.736 302.694 93.624C299.233 91.512 296.505 88.5493 294.51 84.736C292.516 80.9227 291.518 76.5813 291.518 71.712ZM332.35 71.8C332.35 68.1627 331.617 64.9947 330.15 62.296C328.684 59.5973 326.689 57.544 324.166 56.136C321.702 54.6693 318.974 53.936 315.982 53.936C312.99 53.936 310.262 54.64 307.798 56.048C305.334 57.456 303.369 59.5093 301.902 62.208C300.436 64.9067 299.702 68.0747 299.702 71.712C299.702 75.408 300.436 78.6347 301.902 81.392C303.369 84.0907 305.334 86.1733 307.798 87.64C310.262 89.048 312.99 89.752 315.982 89.752C318.974 89.752 321.702 89.048 324.166 87.64C326.689 86.1733 328.684 84.0907 330.15 81.392C331.617 78.6347 332.35 75.4373 332.35 71.8ZM361.987 55.608C363.395 52.8507 365.39 50.7093 367.971 49.184C370.611 47.6587 373.808 46.896 377.563 46.896V55.168H375.451C366.475 55.168 361.987 60.0373 361.987 69.776V96H353.979V47.776H361.987V55.608ZM430.807 70.04C430.807 71.5653 430.719 73.1787 430.543 74.88H391.999C392.293 79.632 393.906 83.3573 396.839 86.056C399.831 88.696 403.439 90.016 407.663 90.016C411.125 90.016 413.999 89.224 416.287 87.64C418.634 85.9973 420.277 83.8267 421.215 81.128H429.839C428.549 85.7627 425.967 89.5467 422.095 92.48C418.223 95.3547 413.413 96.792 407.663 96.792C403.087 96.792 398.981 95.7653 395.343 93.712C391.765 91.6587 388.949 88.7547 386.895 85C384.842 81.1867 383.815 76.7867 383.815 71.8C383.815 66.8133 384.813 62.4427 386.807 58.688C388.802 54.9333 391.589 52.0587 395.167 50.064C398.805 48.0107 402.97 46.984 407.663 46.984C412.239 46.984 416.287 47.9813 419.807 49.976C423.327 51.9707 426.026 54.728 427.903 58.248C429.839 61.7093 430.807 65.64 430.807 70.04ZM422.535 68.368C422.535 65.3173 421.861 62.7067 420.511 60.536C419.162 58.3067 417.314 56.6347 414.967 55.52C412.679 54.3467 410.127 53.76 407.311 53.76C403.263 53.76 399.802 55.0507 396.927 57.632C394.111 60.2133 392.498 63.792 392.087 68.368H422.535Z" fill="url(#paint1_linear_81_21)"/>
<path opacity="0.6" d="M251.627 131.062C251.58 131.068 251.511 131.085 251.422 131.113C251.333 131.14 251.228 131.171 251.104 131.205C250.981 131.239 250.845 131.27 250.694 131.297C250.551 131.325 250.4 131.338 250.243 131.338C249.614 131.338 249.105 131.243 248.715 131.051C248.326 130.867 248.008 130.621 247.762 130.313C247.522 129.999 247.334 129.643 247.198 129.247C247.061 128.85 246.935 128.447 246.818 128.037C246.702 127.62 246.572 127.213 246.429 126.816C246.292 126.42 246.097 126.068 245.844 125.76C245.591 125.446 245.263 125.196 244.86 125.012C244.457 124.82 243.934 124.725 243.291 124.725C243.182 124.725 243.072 124.728 242.963 124.735C242.854 124.735 242.754 124.738 242.666 124.745C242.583 124.752 242.512 124.759 242.45 124.766C242.389 124.766 242.354 124.766 242.348 124.766V129.554C242.348 129.657 242.382 129.756 242.45 129.852C242.525 129.947 242.638 130.002 242.789 130.016L243.896 130.098V131H238.677V130.098L239.764 130.016C239.914 130.002 240.027 129.947 240.102 129.852C240.184 129.756 240.225 129.657 240.225 129.554V118.357C240.225 118.254 240.184 118.155 240.102 118.06C240.027 117.964 239.914 117.909 239.764 117.896L238.677 117.813V116.911H244.152C244.952 116.911 245.67 116.976 246.306 117.106C246.941 117.236 247.481 117.448 247.926 117.742C248.37 118.036 248.708 118.422 248.941 118.9C249.18 119.372 249.3 119.953 249.3 120.644C249.3 121.197 249.204 121.672 249.013 122.069C248.821 122.465 248.565 122.8 248.244 123.074C247.929 123.347 247.563 123.569 247.146 123.74C246.729 123.911 246.299 124.048 245.854 124.15C246.422 124.287 246.876 124.479 247.218 124.725C247.56 124.964 247.83 125.237 248.028 125.545C248.227 125.853 248.374 126.181 248.469 126.529C248.565 126.871 248.65 127.213 248.726 127.555C248.801 127.89 248.886 128.211 248.982 128.519C249.078 128.826 249.225 129.1 249.423 129.339C249.628 129.578 249.901 129.77 250.243 129.913C250.592 130.05 251.053 130.118 251.627 130.118V131.062ZM247.013 120.736C247.013 120.285 246.945 119.888 246.808 119.546C246.671 119.198 246.453 118.904 246.152 118.665C245.858 118.425 245.475 118.244 245.003 118.121C244.539 117.998 243.975 117.937 243.312 117.937H242.348V123.689C242.361 123.689 242.409 123.692 242.491 123.699C242.573 123.699 242.666 123.699 242.768 123.699C242.877 123.699 242.987 123.703 243.096 123.709C243.212 123.709 243.312 123.709 243.394 123.709C243.975 123.709 244.491 123.662 244.942 123.566C245.393 123.463 245.772 123.296 246.08 123.063C246.388 122.831 246.62 122.527 246.777 122.151C246.935 121.768 247.013 121.296 247.013 120.736ZM261.215 129.954C260.921 130.139 260.613 130.31 260.292 130.467C259.978 130.624 259.649 130.761 259.308 130.877C258.973 130.993 258.631 131.085 258.282 131.154C257.934 131.222 257.582 131.256 257.226 131.256C256.59 131.256 255.979 131.15 255.391 130.938C254.803 130.72 254.283 130.395 253.832 129.964C253.388 129.534 253.029 128.994 252.755 128.344C252.489 127.688 252.355 126.922 252.355 126.047C252.355 125.227 252.479 124.485 252.725 123.822C252.971 123.152 253.312 122.582 253.75 122.11C254.188 121.631 254.707 121.266 255.309 121.013C255.91 120.753 256.57 120.623 257.288 120.623C257.937 120.623 258.508 120.732 259 120.951C259.492 121.163 259.902 121.46 260.23 121.843C260.559 122.219 260.805 122.674 260.969 123.207C261.133 123.733 261.215 124.308 261.215 124.93V125.207C261.215 125.316 261.208 125.418 261.194 125.514H254.386C254.386 126.047 254.44 126.581 254.55 127.114C254.666 127.647 254.857 128.125 255.124 128.549C255.391 128.973 255.75 129.318 256.201 129.585C256.652 129.845 257.216 129.975 257.893 129.975C258.193 129.975 258.491 129.937 258.785 129.862C259.079 129.78 259.366 129.677 259.646 129.554C259.933 129.431 260.207 129.294 260.466 129.144C260.726 128.987 260.976 128.83 261.215 128.672V129.954ZM259.113 124.109C259.113 123.761 259.072 123.439 258.99 123.146C258.908 122.845 258.781 122.585 258.61 122.366C258.446 122.147 258.234 121.977 257.975 121.854C257.722 121.724 257.421 121.659 257.072 121.659C256.724 121.659 256.399 121.727 256.098 121.864C255.797 121.994 255.531 122.185 255.298 122.438C255.073 122.691 254.888 122.999 254.745 123.361C254.608 123.716 254.526 124.12 254.499 124.571H259.113V124.109ZM269.162 131L268.885 129.759C268.516 130.04 268.136 130.289 267.747 130.508C267.576 130.604 267.395 130.696 267.203 130.785C267.012 130.874 266.813 130.952 266.608 131.021C266.41 131.096 266.205 131.154 265.993 131.195C265.788 131.236 265.583 131.256 265.378 131.256C264.995 131.256 264.636 131.191 264.301 131.062C263.973 130.932 263.686 130.744 263.44 130.498C263.194 130.251 262.999 129.954 262.855 129.605C262.719 129.257 262.65 128.86 262.65 128.416C262.65 128.156 262.674 127.91 262.722 127.678C262.777 127.445 262.883 127.22 263.04 127.001C263.197 126.782 263.416 126.574 263.696 126.375C263.983 126.17 264.356 125.969 264.814 125.771C265.279 125.572 265.843 125.377 266.506 125.186C267.176 124.988 267.969 124.79 268.885 124.591V123.689C268.885 122.985 268.728 122.465 268.413 122.13C268.099 121.789 267.603 121.618 266.926 121.618C266.557 121.618 266.243 121.652 265.983 121.72C265.723 121.789 265.542 121.843 265.439 121.884V123.709H263.912C263.816 123.709 263.72 123.703 263.625 123.689C263.536 123.675 263.454 123.648 263.378 123.607C263.303 123.559 263.242 123.498 263.194 123.422C263.153 123.34 263.132 123.234 263.132 123.104C263.132 122.674 263.262 122.305 263.522 121.997C263.782 121.683 264.12 121.423 264.537 121.218C264.954 121.013 265.422 120.862 265.942 120.767C266.461 120.671 266.981 120.623 267.5 120.623C268.15 120.623 268.687 120.702 269.11 120.859C269.541 121.016 269.879 121.235 270.125 121.515C270.378 121.795 270.556 122.127 270.659 122.51C270.761 122.893 270.812 123.313 270.812 123.771V129.657C270.812 129.787 270.854 129.893 270.936 129.975C271.024 130.057 271.13 130.104 271.253 130.118L272.269 130.18V131H269.162ZM268.885 125.391C267.941 125.63 267.193 125.866 266.639 126.099C266.085 126.331 265.665 126.567 265.378 126.806C265.098 127.039 264.917 127.278 264.834 127.524C264.759 127.763 264.722 128.013 264.722 128.272C264.722 128.491 264.756 128.707 264.824 128.918C264.899 129.124 265.002 129.308 265.132 129.472C265.269 129.636 265.433 129.77 265.624 129.872C265.822 129.968 266.048 130.016 266.301 130.016C266.581 130.016 266.872 129.964 267.172 129.862C267.48 129.759 267.76 129.646 268.013 129.523C268.307 129.38 268.598 129.212 268.885 129.021V125.391ZM273.181 131V130.18L274.299 130.118C274.395 130.118 274.494 130.07 274.596 129.975C274.706 129.872 274.76 129.773 274.76 129.677V117.034H273.161V116.337L275.847 115.527H276.708V129.677C276.708 129.773 276.756 129.872 276.852 129.975C276.955 130.07 277.054 130.118 277.149 130.118L278.288 130.18V131H273.181ZM288.982 131V130.098L290.069 130.016C290.22 130.002 290.333 129.947 290.408 129.852C290.49 129.756 290.531 129.657 290.531 129.554V118.357C290.531 118.254 290.49 118.155 290.408 118.06C290.333 117.964 290.22 117.909 290.069 117.896L288.982 117.813V116.911H299.185V120.039H297.924L297.606 118.316C297.592 118.213 297.548 118.121 297.473 118.039C297.404 117.957 297.322 117.916 297.227 117.916H292.674V123.146H295.822C295.917 123.146 296.003 123.104 296.078 123.022C296.16 122.94 296.201 122.862 296.201 122.787L296.417 121.341H297.483V126.027H296.417L296.201 124.571C296.201 124.496 296.16 124.414 296.078 124.325C295.996 124.236 295.911 124.191 295.822 124.191H292.674V129.975H297.985C298.074 129.975 298.156 129.927 298.231 129.831C298.307 129.735 298.351 129.65 298.365 129.575L298.744 127.493H299.872V131H288.982ZM308.188 127.955C308.188 128.467 308.096 128.929 307.911 129.339C307.727 129.749 307.463 130.098 307.122 130.385C306.78 130.665 306.359 130.88 305.86 131.031C305.361 131.181 304.801 131.256 304.179 131.256C303.857 131.256 303.543 131.236 303.235 131.195C302.935 131.161 302.654 131.113 302.395 131.051C302.142 130.997 301.916 130.938 301.718 130.877C301.52 130.815 301.369 130.764 301.267 130.723V127.934H302.333L302.589 129.718C302.801 129.855 303.061 129.988 303.369 130.118C303.683 130.241 304.045 130.303 304.456 130.303C304.756 130.303 305.023 130.258 305.255 130.169C305.488 130.074 305.683 129.951 305.84 129.8C306.004 129.65 306.127 129.479 306.209 129.288C306.298 129.089 306.342 128.884 306.342 128.672C306.342 128.399 306.291 128.163 306.188 127.965C306.086 127.76 305.936 127.579 305.737 127.421C305.546 127.257 305.307 127.104 305.02 126.96C304.739 126.81 304.418 126.646 304.056 126.468L303.779 126.334C303.396 126.15 303.058 125.969 302.764 125.791C302.47 125.606 302.22 125.412 302.015 125.207C301.817 124.995 301.667 124.766 301.564 124.52C301.461 124.267 301.41 123.983 301.41 123.668C301.41 123.204 301.492 122.783 301.656 122.407C301.827 122.031 302.073 121.713 302.395 121.454C302.716 121.187 303.109 120.982 303.574 120.838C304.045 120.695 304.585 120.623 305.194 120.623C305.501 120.623 305.795 120.64 306.076 120.674C306.356 120.708 306.612 120.75 306.845 120.797C307.077 120.845 307.282 120.896 307.46 120.951C307.638 121.006 307.778 121.057 307.88 121.105V123.586H306.783L306.619 122.12C306.469 122.004 306.247 121.895 305.953 121.792C305.659 121.689 305.348 121.638 305.02 121.638C304.438 121.638 304.008 121.771 303.728 122.038C303.454 122.298 303.317 122.633 303.317 123.043C303.317 123.282 303.355 123.491 303.43 123.668C303.512 123.846 303.642 124.014 303.82 124.171C304.004 124.328 304.247 124.489 304.548 124.653C304.849 124.81 305.221 124.988 305.666 125.186C306.028 125.35 306.363 125.524 306.67 125.709C306.978 125.887 307.245 126.088 307.47 126.314C307.696 126.533 307.87 126.775 307.993 127.042C308.123 127.309 308.188 127.613 308.188 127.955ZM315.909 130.559C315.649 130.689 315.366 130.805 315.058 130.908C314.798 130.997 314.498 131.075 314.156 131.144C313.814 131.219 313.455 131.256 313.079 131.256C312.286 131.256 311.712 131.072 311.356 130.703C311.001 130.333 310.823 129.732 310.823 128.898V121.925H309.48V121.238L310.916 120.562L311.859 118.336H312.782V120.879H315.745V121.925H312.782V127.791C312.782 128.208 312.816 128.563 312.884 128.857C312.959 129.144 313.065 129.38 313.202 129.564C313.346 129.742 313.52 129.872 313.725 129.954C313.937 130.036 314.183 130.077 314.463 130.077C314.668 130.077 314.856 130.06 315.027 130.026C315.205 129.992 315.359 129.951 315.489 129.903C315.639 129.848 315.779 129.787 315.909 129.718V130.559ZM323.282 131L323.005 129.759C322.636 130.04 322.256 130.289 321.867 130.508C321.696 130.604 321.515 130.696 321.323 130.785C321.132 130.874 320.934 130.952 320.729 131.021C320.53 131.096 320.325 131.154 320.113 131.195C319.908 131.236 319.703 131.256 319.498 131.256C319.115 131.256 318.756 131.191 318.421 131.062C318.093 130.932 317.806 130.744 317.56 130.498C317.314 130.251 317.119 129.954 316.976 129.605C316.839 129.257 316.771 128.86 316.771 128.416C316.771 128.156 316.794 127.91 316.842 127.678C316.897 127.445 317.003 127.22 317.16 127.001C317.317 126.782 317.536 126.574 317.816 126.375C318.104 126.17 318.476 125.969 318.934 125.771C319.399 125.572 319.963 125.377 320.626 125.186C321.296 124.988 322.089 124.79 323.005 124.591V123.689C323.005 122.985 322.848 122.465 322.533 122.13C322.219 121.789 321.723 121.618 321.046 121.618C320.677 121.618 320.363 121.652 320.103 121.72C319.843 121.789 319.662 121.843 319.56 121.884V123.709H318.032C317.936 123.709 317.84 123.703 317.745 123.689C317.656 123.675 317.574 123.648 317.499 123.607C317.423 123.559 317.362 123.498 317.314 123.422C317.273 123.34 317.252 123.234 317.252 123.104C317.252 122.674 317.382 122.305 317.642 121.997C317.902 121.683 318.24 121.423 318.657 121.218C319.074 121.013 319.542 120.862 320.062 120.767C320.582 120.671 321.101 120.623 321.621 120.623C322.27 120.623 322.807 120.702 323.23 120.859C323.661 121.016 324 121.235 324.246 121.515C324.499 121.795 324.676 122.127 324.779 122.51C324.881 122.893 324.933 123.313 324.933 123.771V129.657C324.933 129.787 324.974 129.893 325.056 129.975C325.145 130.057 325.25 130.104 325.374 130.118L326.389 130.18V131H323.282ZM323.005 125.391C322.062 125.63 321.313 125.866 320.759 126.099C320.206 126.331 319.785 126.567 319.498 126.806C319.218 127.039 319.037 127.278 318.955 127.524C318.879 127.763 318.842 128.013 318.842 128.272C318.842 128.491 318.876 128.707 318.944 128.918C319.02 129.124 319.122 129.308 319.252 129.472C319.389 129.636 319.553 129.77 319.744 129.872C319.942 129.968 320.168 130.016 320.421 130.016C320.701 130.016 320.992 129.964 321.292 129.862C321.6 129.759 321.88 129.646 322.133 129.523C322.427 129.38 322.718 129.212 323.005 129.021V125.391ZM333.73 130.559C333.471 130.689 333.187 130.805 332.879 130.908C332.62 130.997 332.319 131.075 331.977 131.144C331.635 131.219 331.276 131.256 330.9 131.256C330.107 131.256 329.533 131.072 329.178 130.703C328.822 130.333 328.645 129.732 328.645 128.898V121.925H327.301V121.238L328.737 120.562L329.68 118.336H330.603V120.879H333.566V121.925H330.603V127.791C330.603 128.208 330.637 128.563 330.706 128.857C330.781 129.144 330.887 129.38 331.023 129.564C331.167 129.742 331.341 129.872 331.546 129.954C331.758 130.036 332.004 130.077 332.285 130.077C332.49 130.077 332.678 130.06 332.849 130.026C333.026 129.992 333.18 129.951 333.31 129.903C333.46 129.848 333.601 129.787 333.73 129.718V130.559ZM343.451 129.954C343.157 130.139 342.85 130.31 342.528 130.467C342.214 130.624 341.886 130.761 341.544 130.877C341.209 130.993 340.867 131.085 340.519 131.154C340.17 131.222 339.818 131.256 339.462 131.256C338.827 131.256 338.215 131.15 337.627 130.938C337.039 130.72 336.52 130.395 336.068 129.964C335.624 129.534 335.265 128.994 334.992 128.344C334.725 127.688 334.592 126.922 334.592 126.047C334.592 125.227 334.715 124.485 334.961 123.822C335.207 123.152 335.549 122.582 335.986 122.11C336.424 121.631 336.943 121.266 337.545 121.013C338.146 120.753 338.806 120.623 339.524 120.623C340.173 120.623 340.744 120.732 341.236 120.951C341.729 121.163 342.139 121.46 342.467 121.843C342.795 122.219 343.041 122.674 343.205 123.207C343.369 123.733 343.451 124.308 343.451 124.93V125.207C343.451 125.316 343.444 125.418 343.431 125.514H336.622C336.622 126.047 336.677 126.581 336.786 127.114C336.902 127.647 337.094 128.125 337.36 128.549C337.627 128.973 337.986 129.318 338.437 129.585C338.888 129.845 339.452 129.975 340.129 129.975C340.43 129.975 340.727 129.937 341.021 129.862C341.315 129.78 341.602 129.677 341.882 129.554C342.169 129.431 342.443 129.294 342.703 129.144C342.962 128.987 343.212 128.83 343.451 128.672V129.954ZM341.349 124.109C341.349 123.761 341.308 123.439 341.226 123.146C341.144 122.845 341.018 122.585 340.847 122.366C340.683 122.147 340.471 121.977 340.211 121.854C339.958 121.724 339.657 121.659 339.309 121.659C338.96 121.659 338.635 121.727 338.334 121.864C338.034 121.994 337.767 122.185 337.535 122.438C337.309 122.691 337.125 122.999 336.981 123.361C336.844 123.716 336.762 124.12 336.735 124.571H341.349V124.109ZM363.744 127.052C363.744 127.585 363.638 128.108 363.426 128.621C363.221 129.134 362.893 129.592 362.441 129.995C361.99 130.398 361.413 130.723 360.708 130.969C360.004 131.215 359.16 131.338 358.176 131.338C357.602 131.338 357.085 131.297 356.627 131.215C356.176 131.133 355.787 131.044 355.458 130.949C355.083 130.833 354.744 130.703 354.443 130.559V126.837H355.766L356.043 129.216C356.057 129.298 356.098 129.387 356.166 129.482C356.241 129.578 356.316 129.643 356.392 129.677L356.566 129.77C356.668 129.817 356.809 129.872 356.986 129.934C357.164 129.988 357.379 130.04 357.632 130.087C357.892 130.135 358.186 130.159 358.514 130.159C358.958 130.159 359.369 130.104 359.745 129.995C360.127 129.879 360.456 129.715 360.729 129.503C361.002 129.291 361.214 129.031 361.365 128.724C361.522 128.416 361.601 128.067 361.601 127.678C361.601 127.254 361.478 126.885 361.231 126.57C360.992 126.249 360.688 125.965 360.319 125.719C359.957 125.466 359.56 125.241 359.129 125.042C358.699 124.844 358.292 124.653 357.909 124.468C357.479 124.263 357.065 124.051 356.668 123.833C356.279 123.614 355.934 123.361 355.633 123.074C355.339 122.787 355.103 122.452 354.925 122.069C354.754 121.679 354.669 121.218 354.669 120.685C354.669 120.062 354.792 119.499 355.038 118.993C355.284 118.487 355.623 118.056 356.053 117.701C356.491 117.338 357.003 117.062 357.591 116.87C358.186 116.672 358.829 116.573 359.519 116.573C359.895 116.573 360.247 116.593 360.575 116.634C360.903 116.675 361.211 116.73 361.498 116.798C361.792 116.86 362.065 116.932 362.318 117.014C362.571 117.089 362.811 117.161 363.036 117.229L363.221 117.291V120.562H362.021L361.703 118.552C361.689 118.456 361.645 118.388 361.57 118.347C361.501 118.299 361.437 118.244 361.375 118.183C361.348 118.162 361.293 118.128 361.211 118.08C361.129 118.025 361.013 117.971 360.862 117.916C360.719 117.861 360.538 117.813 360.319 117.772C360.1 117.731 359.844 117.711 359.55 117.711C359.126 117.711 358.747 117.772 358.412 117.896C358.077 118.019 357.793 118.193 357.561 118.418C357.328 118.637 357.147 118.897 357.017 119.198C356.894 119.499 356.833 119.827 356.833 120.182C356.833 120.503 356.894 120.797 357.017 121.064C357.147 121.324 357.335 121.566 357.581 121.792C357.834 122.011 358.142 122.216 358.504 122.407C358.866 122.599 359.283 122.783 359.755 122.961C360.391 123.2 360.955 123.45 361.447 123.709C361.946 123.969 362.363 124.26 362.698 124.581C363.04 124.902 363.299 125.265 363.477 125.668C363.655 126.064 363.744 126.526 363.744 127.052ZM375.279 125.955C375.279 126.7 375.16 127.397 374.92 128.047C374.688 128.689 374.353 129.25 373.916 129.729C373.485 130.2 372.958 130.573 372.336 130.846C371.721 131.12 371.031 131.256 370.265 131.256C369.5 131.256 368.809 131.123 368.194 130.856C367.579 130.583 367.056 130.21 366.625 129.739C366.194 129.267 365.863 128.71 365.63 128.067C365.405 127.418 365.292 126.714 365.292 125.955C365.292 125.21 365.408 124.513 365.641 123.863C365.873 123.214 366.208 122.65 366.646 122.171C367.083 121.686 367.609 121.307 368.225 121.033C368.847 120.76 369.547 120.623 370.327 120.623C371.106 120.623 371.803 120.763 372.418 121.043C373.034 121.324 373.553 121.707 373.977 122.192C374.401 122.67 374.722 123.234 374.941 123.884C375.167 124.526 375.279 125.217 375.279 125.955ZM373.095 125.935C373.095 125.36 373.037 124.81 372.921 124.284C372.812 123.757 372.641 123.292 372.408 122.889C372.176 122.486 371.885 122.165 371.537 121.925C371.188 121.686 370.778 121.566 370.306 121.566C369.821 121.566 369.4 121.686 369.045 121.925C368.689 122.165 368.396 122.486 368.163 122.889C367.938 123.292 367.77 123.757 367.661 124.284C367.551 124.81 367.497 125.36 367.497 125.935C367.497 126.502 367.551 127.049 367.661 127.575C367.777 128.102 367.951 128.566 368.184 128.97C368.416 129.373 368.707 129.698 369.055 129.944C369.404 130.183 369.814 130.303 370.286 130.303C370.764 130.303 371.181 130.183 371.537 129.944C371.892 129.705 372.183 129.383 372.408 128.98C372.641 128.577 372.812 128.112 372.921 127.585C373.037 127.059 373.095 126.509 373.095 125.935ZM376.561 131V130.18L377.679 130.118C377.774 130.118 377.874 130.07 377.976 129.975C378.085 129.872 378.14 129.773 378.14 129.677V117.034H376.541V116.337L379.227 115.527H380.088V129.677C380.088 129.773 380.136 129.872 380.232 129.975C380.334 130.07 380.434 130.118 380.529 130.118L381.667 130.18V131H376.561ZM390.404 131V129.8C390.226 129.937 390.007 130.091 389.748 130.262C389.495 130.433 389.218 130.593 388.917 130.744C388.623 130.887 388.312 131.007 387.984 131.103C387.663 131.205 387.348 131.256 387.041 131.256C386.589 131.256 386.183 131.188 385.82 131.051C385.465 130.921 385.161 130.72 384.908 130.446C384.662 130.166 384.47 129.814 384.333 129.39C384.204 128.959 384.139 128.447 384.139 127.852V122.161H382.672V121.443L385.256 120.623H386.097V127.452C386.097 127.821 386.131 128.153 386.2 128.447C386.275 128.741 386.391 128.99 386.548 129.195C386.712 129.4 386.924 129.558 387.184 129.667C387.444 129.77 387.758 129.821 388.127 129.821C388.339 129.821 388.555 129.8 388.773 129.759C388.992 129.718 389.201 129.667 389.399 129.605C389.597 129.537 389.782 129.469 389.953 129.4C390.13 129.325 390.281 129.257 390.404 129.195V122.161H388.927V121.443L391.491 120.623H392.352V129.657C392.352 129.787 392.396 129.893 392.485 129.975C392.581 130.057 392.69 130.104 392.813 130.118L393.736 130.18V131H390.404ZM401.181 130.559C400.921 130.689 400.637 130.805 400.33 130.908C400.07 130.997 399.769 131.075 399.427 131.144C399.085 131.219 398.727 131.256 398.351 131.256C397.558 131.256 396.983 131.072 396.628 130.703C396.272 130.333 396.095 129.732 396.095 128.898V121.925H394.751V121.238L396.187 120.562L397.13 118.336H398.053V120.879H401.017V121.925H398.053V127.791C398.053 128.208 398.087 128.563 398.156 128.857C398.231 129.144 398.337 129.38 398.474 129.564C398.617 129.742 398.792 129.872 398.997 129.954C399.208 130.036 399.455 130.077 399.735 130.077C399.94 130.077 400.128 130.06 400.299 130.026C400.477 129.992 400.63 129.951 400.76 129.903C400.911 129.848 401.051 129.787 401.181 129.718V130.559ZM405.897 117.414C405.897 117.591 405.863 117.762 405.795 117.926C405.733 118.083 405.645 118.22 405.528 118.336C405.412 118.453 405.275 118.545 405.118 118.613C404.968 118.682 404.804 118.716 404.626 118.716C404.448 118.716 404.277 118.682 404.113 118.613C403.956 118.545 403.819 118.453 403.703 118.336C403.587 118.22 403.495 118.083 403.426 117.926C403.358 117.762 403.324 117.591 403.324 117.414C403.324 117.236 403.358 117.068 403.426 116.911C403.495 116.754 403.587 116.617 403.703 116.501C403.819 116.385 403.956 116.296 404.113 116.234C404.277 116.166 404.448 116.132 404.626 116.132C404.804 116.132 404.968 116.166 405.118 116.234C405.275 116.296 405.412 116.385 405.528 116.501C405.645 116.617 405.733 116.754 405.795 116.911C405.863 117.068 405.897 117.236 405.897 117.414ZM402.042 131V130.18L403.067 130.118C403.197 130.104 403.303 130.057 403.385 129.975C403.467 129.893 403.508 129.787 403.508 129.657V122.161H402.062V121.423L404.626 120.623H405.457V129.657C405.457 129.787 405.498 129.893 405.58 129.975C405.668 130.057 405.774 130.104 405.897 130.118L406.974 130.18V131H402.042ZM418.407 125.955C418.407 126.7 418.288 127.397 418.048 128.047C417.816 128.689 417.481 129.25 417.043 129.729C416.613 130.2 416.086 130.573 415.464 130.846C414.849 131.12 414.159 131.256 413.393 131.256C412.627 131.256 411.937 131.123 411.322 130.856C410.707 130.583 410.184 130.21 409.753 129.739C409.322 129.267 408.991 128.71 408.758 128.067C408.533 127.418 408.42 126.714 408.42 125.955C408.42 125.21 408.536 124.513 408.769 123.863C409.001 123.214 409.336 122.65 409.773 122.171C410.211 121.686 410.737 121.307 411.353 121.033C411.975 120.76 412.675 120.623 413.455 120.623C414.234 120.623 414.931 120.763 415.546 121.043C416.162 121.324 416.681 121.707 417.105 122.192C417.529 122.67 417.85 123.234 418.069 123.884C418.294 124.526 418.407 125.217 418.407 125.955ZM416.223 125.935C416.223 125.36 416.165 124.81 416.049 124.284C415.939 123.757 415.769 123.292 415.536 122.889C415.304 122.486 415.013 122.165 414.665 121.925C414.316 121.686 413.906 121.566 413.434 121.566C412.949 121.566 412.528 121.686 412.173 121.925C411.817 122.165 411.523 122.486 411.291 122.889C411.065 123.292 410.898 123.757 410.789 124.284C410.679 124.81 410.625 125.36 410.625 125.935C410.625 126.502 410.679 127.049 410.789 127.575C410.905 128.102 411.079 128.566 411.312 128.97C411.544 129.373 411.834 129.698 412.183 129.944C412.532 130.183 412.942 130.303 413.414 130.303C413.892 130.303 414.309 130.183 414.665 129.944C415.02 129.705 415.311 129.383 415.536 128.98C415.769 128.577 415.939 128.112 416.049 127.585C416.165 127.059 416.223 126.509 416.223 125.935ZM425.975 131V130.18L426.856 130.118C426.979 130.104 427.082 130.057 427.164 129.975C427.253 129.893 427.297 129.787 427.297 129.657V124.191C427.297 123.528 427.144 123.026 426.836 122.684C426.528 122.335 426.009 122.161 425.277 122.161C424.874 122.161 424.478 122.219 424.088 122.335C423.698 122.445 423.326 122.588 422.97 122.766V129.657C422.97 129.787 423.011 129.893 423.093 129.975C423.175 130.057 423.281 130.104 423.411 130.118L424.293 130.18V131H419.545V130.18L420.571 130.118C420.701 130.104 420.807 130.057 420.889 129.975C420.971 129.893 421.012 129.787 421.012 129.657V122.366H419.545V121.679L422.109 120.879H422.97V121.925C423.264 121.761 423.562 121.601 423.862 121.443C424.17 121.286 424.474 121.146 424.775 121.023C425.076 120.9 425.366 120.804 425.646 120.736C425.927 120.661 426.19 120.623 426.436 120.623C427.352 120.623 428.049 120.907 428.528 121.474C429.006 122.042 429.246 122.838 429.246 123.863V129.657C429.246 129.787 429.287 129.893 429.369 129.975C429.458 130.057 429.563 130.104 429.687 130.118L430.609 130.18V131H425.975Z" fill="url(#paint2_linear_81_21)"/>
<defs>
<linearGradient id="paint0_linear_81_21" x1="50" y1="37" x2="50" y2="137" gradientUnits="userSpaceOnUse">
<stop stop-color="white"/>
<stop offset="1" stop-color="#808080"/>
</linearGradient>
<linearGradient id="paint1_linear_81_21" x1="280.5" y1="-1" x2="280.5" y2="131" gradientUnits="userSpaceOnUse">
<stop stop-color="white"/>
<stop offset="1" stop-color="#6D6D6D"/>
</linearGradient>
<linearGradient id="paint2_linear_81_21" x1="391.5" y1="96" x2="391.5" y2="152" gradientUnits="userSpaceOnUse">
<stop stop-color="white"/>
<stop offset="1" stop-color="#A2A2A2"/>
</linearGradient>
</defs>
</svg>
