<svg width="344" height="150" viewBox="0 0 344 150" fill="none" xmlns="http://www.w3.org/2000/svg">
<path d="M4.37598 106.268H13.9463L13.9941 40.5195H4.37598V36.7871H36.6279C55.8643 36.7871 68.3057 42.8643 73.9521 55.0186C76.2809 60.027 77.4453 65.9606 77.4453 72.8193C77.4453 81.943 74.7975 89.9023 69.502 96.6973C65.2272 102.152 59.0225 105.996 50.8877 108.229C46.613 109.41 41.6364 110 35.958 110H4.37598V106.268ZM35.3838 106.268C45.4326 106.268 52.6263 103.763 56.9648 98.7549C61.3034 93.7464 63.4727 85.2129 63.4727 73.1543V71.6709C63.2812 60.1227 60.9525 52.0518 56.4863 47.458C52.0521 42.8324 45.2253 40.5195 36.0059 40.5195H26.8662V106.268H35.3838ZM85.5801 85.5C85.5801 77.9714 87.9727 71.8783 92.7578 67.2207C97.543 62.5632 103.556 60.2344 110.798 60.2344C118.071 60.2344 124.053 62.5632 128.742 67.2207C133.464 71.8464 135.824 77.9395 135.824 85.5C135.824 93.0286 133.479 99.1536 128.79 103.875C124.132 108.596 118.151 110.957 110.846 110.957C103.54 110.957 97.4951 108.596 92.71 103.875C87.9567 99.1536 85.5801 93.0286 85.5801 85.5ZM110.702 106.985C117.146 106.985 120.926 102.599 122.043 93.8262C122.362 91.2103 122.521 88.403 122.521 85.4043C122.521 78.6732 121.756 73.6328 120.225 70.2832C118.342 66.2637 115.168 64.2539 110.702 64.2539C104.258 64.2539 100.478 68.4967 99.3613 76.9824C99.0423 79.5664 98.8828 82.3737 98.8828 85.4043C98.8828 92.1673 99.6484 97.2715 101.18 100.717C103.094 104.896 106.268 106.985 110.702 106.985ZM163.1 67.6514C168.236 62.7067 173.786 60.2344 179.752 60.2344C181.666 60.2344 183.357 60.8724 184.824 62.1484C186.292 63.4245 187.025 65.0674 187.025 67.0771C187.025 69.055 186.403 70.666 185.159 71.9102C183.915 73.1543 182.4 73.7764 180.613 73.7764C178.827 73.7764 177.312 73.1702 176.067 71.958C174.855 70.7139 174.249 69.1826 174.249 67.3643C174.249 66.6305 174.377 65.8809 174.632 65.1152C170.006 66.5189 166.162 68.8955 163.1 72.2451V106.315H173.579V110H143.433V106.315H150.562V64.7803H143.385V61.0479H163.1V67.6514ZM222.723 41.5723C222.723 37.8717 224.413 35.7503 227.795 35.208C227.444 34.4424 226.678 33.7884 225.498 33.2461C224.35 32.7038 223.042 32.4326 221.574 32.4326C218.831 32.4326 216.965 33.597 215.976 35.9258C214.987 38.2227 214.492 41.7796 214.492 46.5967V61.0479H224.254L225.211 64.7803H214.444V106.268H224.493V110H194.251V106.268H202.003V64.7803H194.251V61.0479H202.003V48.9414C202.003 42.306 203.662 37.2656 206.979 33.8203C210.297 30.375 214.715 28.6523 220.234 28.6523C224.541 28.6523 228.018 29.7689 230.666 32.002C233.346 34.235 234.686 36.8828 234.686 39.9453C234.686 43.0078 233.394 45.0814 230.81 46.166C230.076 46.4531 229.119 46.5967 227.938 46.5967C226.758 46.5967 225.594 46.0863 224.445 45.0654C223.297 44.0446 222.723 42.8802 222.723 41.5723ZM271.723 105.311C267.48 109.075 262.886 110.957 257.941 110.957C253.029 110.957 248.866 109.968 245.452 107.99C240.731 105.215 238.37 100.573 238.37 94.0654V64.7803H231.575V61.0479H250.812V96.2666C250.812 102.998 253.922 106.363 260.143 106.363C264.449 106.363 268.309 104.385 271.723 100.43V64.7803H263.444V61.0479H284.068V106.268H290.241V110H271.723V105.311ZM307.372 106.507C306.351 107.209 305.777 108.373 305.649 110H301.056L301.247 95.5967H305.649C305.649 98.0531 307.181 100.573 310.243 103.157C313.338 105.741 317.245 107.033 321.967 107.033C326.688 107.033 329.687 105.661 330.963 102.918C331.314 102.12 331.489 101.291 331.489 100.43C331.489 98.8346 330.389 97.3672 328.188 96.0273C326.018 94.6875 322.429 93.1243 317.421 91.3379C312.444 89.5514 308.521 87.2546 305.649 84.4473C302.778 81.6081 301.343 78.1628 301.343 74.1113C301.343 70.028 303.161 66.6943 306.798 64.1104C310.435 61.5264 314.63 60.2344 319.383 60.2344C324.168 60.2344 328.012 61.4147 330.915 63.7754C331.808 63.4883 332.51 62.7865 333.021 61.6699C333.212 61.2871 333.308 60.8245 333.308 60.2822H336.944V73.6328H332.733C332.191 70.6341 330.74 68.3053 328.379 66.6465C326.05 64.9557 323.307 64.1104 320.148 64.1104C316.99 64.1104 314.55 64.7324 312.827 65.9766C311.136 67.1888 310.291 68.6722 310.291 70.4268C310.291 72.1813 311.264 73.7923 313.21 75.2598C315.188 76.6953 317.963 78.0511 321.536 79.3271C325.141 80.5713 327.964 81.6719 330.006 82.6289C336.546 85.7871 339.815 90.3649 339.815 96.3623C339.815 102.328 336.466 106.666 329.767 109.378C327.151 110.431 324.487 110.957 321.775 110.957C316.129 110.957 311.328 109.474 307.372 106.507Z" fill="url(#paint0_linear_80_12)"/>
<defs>
<linearGradient id="paint0_linear_80_12" x1="172" y1="13" x2="172" y2="137" gradientUnits="userSpaceOnUse">
<stop stop-color="white"/>
<stop offset="1" stop-color="#BAB6B6"/>
</linearGradient>
</defs>
</svg>
