<svg width="447" height="150" viewBox="0 0 447 150" fill="none" xmlns="http://www.w3.org/2000/svg">
<path d="M0 80L58 32V52L0 100V80Z" fill="url(#paint0_linear_81_25)"/>
<path d="M26 80L84 32V52L26 100V80Z" fill="url(#paint1_linear_81_25)"/>
<path d="M0 123L58 75V95L0 143V123Z" fill="url(#paint2_linear_81_25)"/>
<path d="M26 123L84 75V95L26 143V123Z" fill="url(#paint3_linear_81_25)"/>
<path d="M178.438 73.5156C177.75 73.5781 177.234 73.8125 176.891 74.2188C176.578 74.5938 176.422 75.0312 176.422 75.5312V97.7031C174.484 98.4219 172.422 99.0625 170.234 99.625C168.359 100.125 166.203 100.562 163.766 100.938C161.359 101.344 158.859 101.547 156.266 101.547C152.703 101.547 149.391 101.125 146.328 100.281C143.297 99.4375 140.531 98.25 138.031 96.7188C135.562 95.1875 133.375 93.375 131.469 91.2812C129.562 89.1562 127.953 86.8438 126.641 84.3438C125.359 81.8438 124.391 79.1875 123.734 76.375C123.078 73.5312 122.75 70.625 122.75 67.6562C122.75 62.625 123.547 58.0469 125.141 53.9219C126.734 49.7656 129.031 46.2188 132.031 43.2812C135.031 40.3438 138.672 38.0781 142.953 36.4844C147.266 34.8594 152.109 34.0469 157.484 34.0469C159.109 34.0469 160.672 34.1406 162.172 34.3281C163.703 34.4844 165.172 34.7031 166.578 34.9844C167.984 35.2344 169.359 35.5312 170.703 35.875L174.734 36.9062L176.328 37.3281V52.8438H170.562L169.016 44.2188C168.922 43.6562 168.688 43.1875 168.312 42.8125C167.938 42.4062 167.531 42.1094 167.094 41.9219C166.969 41.8906 166.781 41.8125 166.531 41.6875C166.031 41.4688 165.453 41.2344 164.797 40.9844C164.141 40.7344 163.406 40.5 162.594 40.2812C161.812 40.0312 160.953 39.8281 160.016 39.6719C159.109 39.5156 158.141 39.4375 157.109 39.4375C153.641 39.4375 150.469 40.0469 147.594 41.2656C144.719 42.4844 142.25 44.2656 140.188 46.6094C138.125 48.9531 136.516 51.8594 135.359 55.3281C134.234 58.7656 133.672 62.7188 133.672 67.1875C133.672 71.7812 134.25 75.875 135.406 79.4688C136.562 83.0625 138.203 86.0938 140.328 88.5625C142.484 91.0312 145.078 92.9219 148.109 94.2344C151.141 95.5156 154.531 96.1562 158.281 96.1562C159.344 96.1562 160.359 96.0781 161.328 95.9219C162.297 95.7656 163.156 95.6094 163.906 95.4531C164.656 95.2656 165.281 95.0938 165.781 94.9375C166.281 94.7812 166.594 94.7031 166.719 94.7031V75.5312C166.719 75.0312 166.547 74.5938 166.203 74.2188C165.891 73.8125 165.391 73.5781 164.703 73.5156L158.281 73.0469V68.875H183.312V73.0469L178.438 73.5156ZM234.688 76.9375C234.688 80.3438 234.141 83.5312 233.047 86.5C231.984 89.4375 230.453 92 228.453 94.1875C226.484 96.3438 224.078 98.0469 221.234 99.2969C218.422 100.547 215.266 101.172 211.766 101.172C208.266 101.172 205.109 100.562 202.297 99.3438C199.484 98.0938 197.094 96.3906 195.125 94.2344C193.156 92.0781 191.641 89.5312 190.578 86.5938C189.547 83.625 189.031 80.4062 189.031 76.9375C189.031 73.5312 189.562 70.3438 190.625 67.375C191.688 64.4062 193.219 61.8281 195.219 59.6406C197.219 57.4219 199.625 55.6875 202.438 54.4375C205.281 53.1875 208.484 52.5625 212.047 52.5625C215.609 52.5625 218.797 53.2031 221.609 54.4844C224.422 55.7656 226.797 57.5156 228.734 59.7344C230.672 61.9219 232.141 64.5 233.141 67.4688C234.172 70.4062 234.688 73.5625 234.688 76.9375ZM224.703 76.8438C224.703 74.2188 224.438 71.7031 223.906 69.2969C223.406 66.8906 222.625 64.7656 221.562 62.9219C220.5 61.0781 219.172 59.6094 217.578 58.5156C215.984 57.4219 214.109 56.875 211.953 56.875C209.734 56.875 207.812 57.4219 206.188 58.5156C204.562 59.6094 203.219 61.0781 202.156 62.9219C201.125 64.7656 200.359 66.8906 199.859 69.2969C199.359 71.7031 199.109 74.2188 199.109 76.8438C199.109 79.4375 199.359 81.9375 199.859 84.3438C200.391 86.75 201.188 88.875 202.25 90.7188C203.312 92.5625 204.641 94.0469 206.234 95.1719C207.828 96.2656 209.703 96.8125 211.859 96.8125C214.047 96.8125 215.953 96.2656 217.578 95.1719C219.203 94.0781 220.531 92.6094 221.562 90.7656C222.625 88.9219 223.406 86.7969 223.906 84.3906C224.438 81.9844 224.703 79.4688 224.703 76.8438ZM287.984 74.6406C287.984 78.2656 287.453 81.625 286.391 84.7188C285.328 87.7812 283.672 90.4531 281.422 92.7344C279.203 95.0156 276.344 96.7969 272.844 98.0781C269.375 99.3594 265.234 100 260.422 100H246.594V36.1562H239.328V32.9688L251.703 29.2656H255.547V56.125C256.109 55.875 256.844 55.5469 257.75 55.1406C258.656 54.7344 259.688 54.3438 260.844 53.9688C262.031 53.5938 263.297 53.2656 264.641 52.9844C265.984 52.7031 267.359 52.5625 268.766 52.5625C271.922 52.5625 274.688 53.1562 277.062 54.3438C279.469 55.5312 281.484 57.1406 283.109 59.1719C284.734 61.2031 285.953 63.5625 286.766 66.25C287.578 68.9062 287.984 71.7031 287.984 74.6406ZM278.188 76.5625C278.188 70.5312 276.891 65.9688 274.297 62.875C271.734 59.7812 268.141 58.2344 263.516 58.2344C262.984 58.2344 262.359 58.2812 261.641 58.375C260.922 58.4688 260.188 58.5938 259.438 58.75C258.719 58.9062 258 59.0781 257.281 59.2656C256.594 59.4531 256.016 59.625 255.547 59.7812V95.4062C256.078 95.4375 256.625 95.4531 257.188 95.4531C257.656 95.4844 258.156 95.5 258.688 95.5H260.234C263.078 95.5 265.609 95.1719 267.828 94.5156C270.047 93.8594 271.922 92.7812 273.453 91.2812C274.984 89.7812 276.156 87.8281 276.969 85.4219C277.781 83.0156 278.188 80.0625 278.188 76.5625ZM340.25 76.9375C340.25 80.3438 339.703 83.5312 338.609 86.5C337.547 89.4375 336.016 92 334.016 94.1875C332.047 96.3438 329.641 98.0469 326.797 99.2969C323.984 100.547 320.828 101.172 317.328 101.172C313.828 101.172 310.672 100.562 307.859 99.3438C305.047 98.0938 302.656 96.3906 300.688 94.2344C298.719 92.0781 297.203 89.5312 296.141 86.5938C295.109 83.625 294.594 80.4062 294.594 76.9375C294.594 73.5312 295.125 70.3438 296.188 67.375C297.25 64.4062 298.781 61.8281 300.781 59.6406C302.781 57.4219 305.188 55.6875 308 54.4375C310.844 53.1875 314.047 52.5625 317.609 52.5625C321.172 52.5625 324.359 53.2031 327.172 54.4844C329.984 55.7656 332.359 57.5156 334.297 59.7344C336.234 61.9219 337.703 64.5 338.703 67.4688C339.734 70.4062 340.25 73.5625 340.25 76.9375ZM330.266 76.8438C330.266 74.2188 330 71.7031 329.469 69.2969C328.969 66.8906 328.188 64.7656 327.125 62.9219C326.062 61.0781 324.734 59.6094 323.141 58.5156C321.547 57.4219 319.672 56.875 317.516 56.875C315.297 56.875 313.375 57.4219 311.75 58.5156C310.125 59.6094 308.781 61.0781 307.719 62.9219C306.688 64.7656 305.922 66.8906 305.422 69.2969C304.922 71.7031 304.672 74.2188 304.672 76.8438C304.672 79.4375 304.922 81.9375 305.422 84.3438C305.953 86.75 306.75 88.875 307.812 90.7188C308.875 92.5625 310.203 94.0469 311.797 95.1719C313.391 96.2656 315.266 96.8125 317.422 96.8125C319.609 96.8125 321.516 96.2656 323.141 95.1719C324.766 94.0781 326.094 92.6094 327.125 90.7656C328.188 88.9219 328.969 86.7969 329.469 84.3906C330 81.9844 330.266 79.4688 330.266 76.8438ZM374.844 100V96.25L378.875 95.9688C379.438 95.9062 379.906 95.6875 380.281 95.3125C380.688 94.9375 380.891 94.4531 380.891 93.8594V68.875C380.891 65.8438 380.188 63.5469 378.781 61.9844C377.375 60.3906 375 59.5938 371.656 59.5938C369.812 59.5938 368 59.8594 366.219 60.3906C364.438 60.8906 362.734 61.5469 361.109 62.3594V93.8594C361.109 94.4531 361.297 94.9375 361.672 95.3125C362.047 95.6875 362.531 95.9062 363.125 95.9688L367.156 96.25V100H345.453V96.25L350.141 95.9688C350.734 95.9062 351.219 95.6875 351.594 95.3125C351.969 94.9375 352.156 94.4531 352.156 93.8594V60.5312H345.453V57.3906L357.172 53.7344H361.109V58.5156C362.453 57.7656 363.812 57.0312 365.188 56.3125C366.594 55.5938 367.984 54.9531 369.359 54.3906C370.734 53.8281 372.062 53.3906 373.344 53.0781C374.625 52.7344 375.828 52.5625 376.953 52.5625C381.141 52.5625 384.328 53.8594 386.516 56.4531C388.703 59.0469 389.797 62.6875 389.797 67.375V93.8594C389.797 94.4531 389.984 94.9375 390.359 95.3125C390.766 95.6875 391.25 95.9062 391.812 95.9688L396.031 96.25V100H374.844ZM431.047 100L429.781 94.3281C428.094 95.6094 426.359 96.75 424.578 97.75C423.797 98.1875 422.969 98.6094 422.094 99.0156C421.219 99.4219 420.312 99.7812 419.375 100.094C418.469 100.438 417.531 100.703 416.562 100.891C415.625 101.078 414.688 101.172 413.75 101.172C412 101.172 410.359 100.875 408.828 100.281C407.328 99.6875 406.016 98.8281 404.891 97.7031C403.766 96.5781 402.875 95.2188 402.219 93.625C401.594 92.0312 401.281 90.2188 401.281 88.1875C401.281 87 401.391 85.875 401.609 84.8125C401.859 83.75 402.344 82.7188 403.062 81.7188C403.781 80.7188 404.781 79.7656 406.062 78.8594C407.375 77.9219 409.078 77 411.172 76.0938C413.297 75.1875 415.875 74.2969 418.906 73.4219C421.969 72.5156 425.594 71.6094 429.781 70.7031V66.5781C429.781 63.3594 429.062 60.9844 427.625 59.4531C426.188 57.8906 423.922 57.1094 420.828 57.1094C419.141 57.1094 417.703 57.2656 416.516 57.5781C415.328 57.8906 414.5 58.1406 414.031 58.3281V66.6719H407.047C406.609 66.6719 406.172 66.6406 405.734 66.5781C405.328 66.5156 404.953 66.3906 404.609 66.2031C404.266 65.9844 403.984 65.7031 403.766 65.3594C403.578 64.9844 403.484 64.5 403.484 63.9062C403.484 61.9375 404.078 60.25 405.266 58.8438C406.453 57.4062 408 56.2188 409.906 55.2812C411.812 54.3438 413.953 53.6562 416.328 53.2188C418.703 52.7812 421.078 52.5625 423.453 52.5625C426.422 52.5625 428.875 52.9219 430.812 53.6406C432.781 54.3594 434.328 55.3594 435.453 56.6406C436.609 57.9219 437.422 59.4375 437.891 61.1875C438.359 62.9375 438.594 64.8594 438.594 66.9531V93.8594C438.594 94.4531 438.781 94.9375 439.156 95.3125C439.562 95.6875 440.047 95.9062 440.609 95.9688L445.25 96.25V100H431.047ZM429.781 74.3594C425.469 75.4531 422.047 76.5312 419.516 77.5938C416.984 78.6562 415.062 79.7344 413.75 80.8281C412.469 81.8906 411.641 82.9844 411.266 84.1094C410.922 85.2031 410.75 86.3438 410.75 87.5312C410.75 88.5312 410.906 89.5156 411.219 90.4844C411.562 91.4219 412.031 92.2656 412.625 93.0156C413.25 93.7656 414 94.375 414.875 94.8438C415.781 95.2812 416.812 95.5 417.969 95.5C419.25 95.5 420.578 95.2656 421.953 94.7969C423.359 94.3281 424.641 93.8125 425.797 93.25C427.141 92.5938 428.469 91.8281 429.781 90.9531V74.3594Z" fill="url(#paint4_linear_81_25)"/>
<path opacity="0.6" d="M132.488 120.164L127.66 128.156V133.348C127.66 133.465 127.703 133.578 127.789 133.688C127.875 133.797 128 133.859 128.164 133.875L129.699 133.969V135H123.219V133.969L124.707 133.875C124.879 133.859 125.008 133.797 125.094 133.688C125.188 133.578 125.234 133.465 125.234 133.348V128.52L120.629 120.211L119.234 119.93V118.898H124.93V119.93L123.723 120.047C123.598 120.062 123.512 120.098 123.465 120.152C123.418 120.207 123.395 120.266 123.395 120.328C123.395 120.406 123.41 120.473 123.441 120.527L126.828 126.797L130.543 120.598C130.574 120.543 130.59 120.488 130.59 120.434C130.59 120.348 130.555 120.273 130.484 120.211C130.422 120.148 130.348 120.109 130.262 120.094L128.914 119.93V118.898H133.789V119.93L132.488 120.164ZM146.258 129.234C146.258 130.086 146.121 130.883 145.848 131.625C145.582 132.359 145.199 133 144.699 133.547C144.207 134.086 143.605 134.512 142.895 134.824C142.191 135.137 141.402 135.293 140.527 135.293C139.652 135.293 138.863 135.141 138.16 134.836C137.457 134.523 136.859 134.098 136.367 133.559C135.875 133.02 135.496 132.383 135.23 131.648C134.973 130.906 134.844 130.102 134.844 129.234C134.844 128.383 134.977 127.586 135.242 126.844C135.508 126.102 135.891 125.457 136.391 124.91C136.891 124.355 137.492 123.922 138.195 123.609C138.906 123.297 139.707 123.141 140.598 123.141C141.488 123.141 142.285 123.301 142.988 123.621C143.691 123.941 144.285 124.379 144.77 124.934C145.254 125.48 145.621 126.125 145.871 126.867C146.129 127.602 146.258 128.391 146.258 129.234ZM143.762 129.211C143.762 128.555 143.695 127.926 143.562 127.324C143.438 126.723 143.242 126.191 142.977 125.73C142.711 125.27 142.379 124.902 141.98 124.629C141.582 124.355 141.113 124.219 140.574 124.219C140.02 124.219 139.539 124.355 139.133 124.629C138.727 124.902 138.391 125.27 138.125 125.73C137.867 126.191 137.676 126.723 137.551 127.324C137.426 127.926 137.363 128.555 137.363 129.211C137.363 129.859 137.426 130.484 137.551 131.086C137.684 131.688 137.883 132.219 138.148 132.68C138.414 133.141 138.746 133.512 139.145 133.793C139.543 134.066 140.012 134.203 140.551 134.203C141.098 134.203 141.574 134.066 141.98 133.793C142.387 133.52 142.719 133.152 142.977 132.691C143.242 132.23 143.438 131.699 143.562 131.098C143.695 130.496 143.762 129.867 143.762 129.211ZM156.418 135V133.629C156.215 133.785 155.965 133.961 155.668 134.156C155.379 134.352 155.062 134.535 154.719 134.707C154.383 134.871 154.027 135.008 153.652 135.117C153.285 135.234 152.926 135.293 152.574 135.293C152.059 135.293 151.594 135.215 151.18 135.059C150.773 134.91 150.426 134.68 150.137 134.367C149.855 134.047 149.637 133.645 149.48 133.16C149.332 132.668 149.258 132.082 149.258 131.402V124.898H147.582V124.078L150.535 123.141H151.496V130.945C151.496 131.367 151.535 131.746 151.613 132.082C151.699 132.418 151.832 132.703 152.012 132.938C152.199 133.172 152.441 133.352 152.738 133.477C153.035 133.594 153.395 133.652 153.816 133.652C154.059 133.652 154.305 133.629 154.555 133.582C154.805 133.535 155.043 133.477 155.27 133.406C155.496 133.328 155.707 133.25 155.902 133.172C156.105 133.086 156.277 133.008 156.418 132.938V124.898H154.73V124.078L157.66 123.141H158.645V133.465C158.645 133.613 158.695 133.734 158.797 133.828C158.906 133.922 159.031 133.977 159.172 133.992L160.227 134.062V135H156.418ZM168.945 125.883C168.789 125.703 168.609 125.551 168.406 125.426C168.203 125.293 167.953 125.227 167.656 125.227C167.266 125.227 166.871 125.359 166.473 125.625C166.074 125.883 165.668 126.246 165.254 126.715V133.465C165.254 133.613 165.301 133.738 165.395 133.84C165.488 133.934 165.609 133.984 165.758 133.992L167.34 134.062V135H161.34V134.086L162.523 133.992C162.664 133.977 162.781 133.922 162.875 133.828C162.977 133.734 163.027 133.613 163.027 133.465V125.133H161.293V124.348L164.27 123.434H165.254V125.566C165.426 125.379 165.633 125.148 165.875 124.875C166.125 124.594 166.391 124.324 166.672 124.066C166.953 123.809 167.242 123.59 167.539 123.41C167.844 123.23 168.137 123.141 168.418 123.141C168.543 123.141 168.676 123.152 168.816 123.176C168.957 123.199 169.094 123.23 169.227 123.27C169.359 123.301 169.48 123.34 169.59 123.387C169.707 123.426 169.805 123.465 169.883 123.504V125.883H168.945ZM193.52 122.73L193.18 120.48C193.156 120.355 193.109 120.258 193.039 120.188C192.977 120.109 192.891 120.07 192.781 120.07H189.348V133.348C189.348 133.465 189.387 133.578 189.465 133.688C189.551 133.797 189.68 133.859 189.852 133.875L191.387 133.969V135H184.883V133.969L186.418 133.875C186.59 133.859 186.715 133.797 186.793 133.688C186.879 133.578 186.922 133.465 186.922 133.348V120.07H183.465C183.355 120.07 183.262 120.109 183.184 120.188C183.113 120.258 183.07 120.355 183.055 120.48L182.727 122.73H181.332V118.898H194.938V122.73H193.52ZM203.539 125.883C203.383 125.703 203.203 125.551 203 125.426C202.797 125.293 202.547 125.227 202.25 125.227C201.859 125.227 201.465 125.359 201.066 125.625C200.668 125.883 200.262 126.246 199.848 126.715V133.465C199.848 133.613 199.895 133.738 199.988 133.84C200.082 133.934 200.203 133.984 200.352 133.992L201.934 134.062V135H195.934V134.086L197.117 133.992C197.258 133.977 197.375 133.922 197.469 133.828C197.57 133.734 197.621 133.613 197.621 133.465V125.133H195.887V124.348L198.863 123.434H199.848V125.566C200.02 125.379 200.227 125.148 200.469 124.875C200.719 124.594 200.984 124.324 201.266 124.066C201.547 123.809 201.836 123.59 202.133 123.41C202.438 123.23 202.73 123.141 203.012 123.141C203.137 123.141 203.27 123.152 203.41 123.176C203.551 123.199 203.688 123.23 203.82 123.27C203.953 123.301 204.074 123.34 204.184 123.387C204.301 123.426 204.398 123.465 204.477 123.504V125.883H203.539ZM214.074 135V133.629C213.871 133.785 213.621 133.961 213.324 134.156C213.035 134.352 212.719 134.535 212.375 134.707C212.039 134.871 211.684 135.008 211.309 135.117C210.941 135.234 210.582 135.293 210.23 135.293C209.715 135.293 209.25 135.215 208.836 135.059C208.43 134.91 208.082 134.68 207.793 134.367C207.512 134.047 207.293 133.645 207.137 133.16C206.988 132.668 206.914 132.082 206.914 131.402V124.898H205.238V124.078L208.191 123.141H209.152V130.945C209.152 131.367 209.191 131.746 209.27 132.082C209.355 132.418 209.488 132.703 209.668 132.938C209.855 133.172 210.098 133.352 210.395 133.477C210.691 133.594 211.051 133.652 211.473 133.652C211.715 133.652 211.961 133.629 212.211 133.582C212.461 133.535 212.699 133.477 212.926 133.406C213.152 133.328 213.363 133.25 213.559 133.172C213.762 133.086 213.934 133.008 214.074 132.938V124.898H212.387V124.078L215.316 123.141H216.301V133.465C216.301 133.613 216.352 133.734 216.453 133.828C216.562 133.922 216.688 133.977 216.828 133.992L217.883 134.062V135H214.074ZM227.129 131.52C227.129 132.105 227.023 132.633 226.812 133.102C226.602 133.57 226.301 133.969 225.91 134.297C225.52 134.617 225.039 134.863 224.469 135.035C223.898 135.207 223.258 135.293 222.547 135.293C222.18 135.293 221.82 135.27 221.469 135.223C221.125 135.184 220.805 135.129 220.508 135.059C220.219 134.996 219.961 134.93 219.734 134.859C219.508 134.789 219.336 134.73 219.219 134.684V131.496H220.438L220.73 133.535C220.973 133.691 221.27 133.844 221.621 133.992C221.98 134.133 222.395 134.203 222.863 134.203C223.207 134.203 223.512 134.152 223.777 134.051C224.043 133.941 224.266 133.801 224.445 133.629C224.633 133.457 224.773 133.262 224.867 133.043C224.969 132.816 225.02 132.582 225.02 132.34C225.02 132.027 224.961 131.758 224.844 131.531C224.727 131.297 224.555 131.09 224.328 130.91C224.109 130.723 223.836 130.547 223.508 130.383C223.188 130.211 222.82 130.023 222.406 129.82L222.09 129.668C221.652 129.457 221.266 129.25 220.93 129.047C220.594 128.836 220.309 128.613 220.074 128.379C219.848 128.137 219.676 127.875 219.559 127.594C219.441 127.305 219.383 126.98 219.383 126.621C219.383 126.09 219.477 125.609 219.664 125.18C219.859 124.75 220.141 124.387 220.508 124.09C220.875 123.785 221.324 123.551 221.855 123.387C222.395 123.223 223.012 123.141 223.707 123.141C224.059 123.141 224.395 123.16 224.715 123.199C225.035 123.238 225.328 123.285 225.594 123.34C225.859 123.395 226.094 123.453 226.297 123.516C226.5 123.578 226.66 123.637 226.777 123.691V126.527H225.523L225.336 124.852C225.164 124.719 224.91 124.594 224.574 124.477C224.238 124.359 223.883 124.301 223.508 124.301C222.844 124.301 222.352 124.453 222.031 124.758C221.719 125.055 221.562 125.438 221.562 125.906C221.562 126.18 221.605 126.418 221.691 126.621C221.785 126.824 221.934 127.016 222.137 127.195C222.348 127.375 222.625 127.559 222.969 127.746C223.312 127.926 223.738 128.129 224.246 128.355C224.66 128.543 225.043 128.742 225.395 128.953C225.746 129.156 226.051 129.387 226.309 129.645C226.566 129.895 226.766 130.172 226.906 130.477C227.055 130.781 227.129 131.129 227.129 131.52ZM235.953 134.496C235.656 134.645 235.332 134.777 234.98 134.895C234.684 134.996 234.34 135.086 233.949 135.164C233.559 135.25 233.148 135.293 232.719 135.293C231.812 135.293 231.156 135.082 230.75 134.66C230.344 134.238 230.141 133.551 230.141 132.598V124.629H228.605V123.844L230.246 123.07L231.324 120.527H232.379V123.434H235.766V124.629H232.379V131.332C232.379 131.809 232.418 132.215 232.496 132.551C232.582 132.879 232.703 133.148 232.859 133.359C233.023 133.562 233.223 133.711 233.457 133.805C233.699 133.898 233.98 133.945 234.301 133.945C234.535 133.945 234.75 133.926 234.945 133.887C235.148 133.848 235.324 133.801 235.473 133.746C235.645 133.684 235.805 133.613 235.953 133.535V134.496ZM247.062 133.805C246.727 134.016 246.375 134.211 246.008 134.391C245.648 134.57 245.273 134.727 244.883 134.859C244.5 134.992 244.109 135.098 243.711 135.176C243.312 135.254 242.91 135.293 242.504 135.293C241.777 135.293 241.078 135.172 240.406 134.93C239.734 134.68 239.141 134.309 238.625 133.816C238.117 133.324 237.707 132.707 237.395 131.965C237.09 131.215 236.938 130.34 236.938 129.34C236.938 128.402 237.078 127.555 237.359 126.797C237.641 126.031 238.031 125.379 238.531 124.84C239.031 124.293 239.625 123.875 240.312 123.586C241 123.289 241.754 123.141 242.574 123.141C243.316 123.141 243.969 123.266 244.531 123.516C245.094 123.758 245.562 124.098 245.938 124.535C246.312 124.965 246.594 125.484 246.781 126.094C246.969 126.695 247.062 127.352 247.062 128.062V128.379C247.062 128.504 247.055 128.621 247.039 128.73H239.258C239.258 129.34 239.32 129.949 239.445 130.559C239.578 131.168 239.797 131.715 240.102 132.199C240.406 132.684 240.816 133.078 241.332 133.383C241.848 133.68 242.492 133.828 243.266 133.828C243.609 133.828 243.949 133.785 244.285 133.699C244.621 133.605 244.949 133.488 245.27 133.348C245.598 133.207 245.91 133.051 246.207 132.879C246.504 132.699 246.789 132.52 247.062 132.34V133.805ZM244.66 127.125C244.66 126.727 244.613 126.359 244.52 126.023C244.426 125.68 244.281 125.383 244.086 125.133C243.898 124.883 243.656 124.688 243.359 124.547C243.07 124.398 242.727 124.324 242.328 124.324C241.93 124.324 241.559 124.402 241.215 124.559C240.871 124.707 240.566 124.926 240.301 125.215C240.043 125.504 239.832 125.855 239.668 126.27C239.512 126.676 239.418 127.137 239.387 127.652H244.66V127.125ZM257.023 135V133.723C256.75 133.934 256.465 134.137 256.168 134.332C255.879 134.52 255.578 134.684 255.266 134.824C254.961 134.965 254.645 135.078 254.316 135.164C253.996 135.25 253.66 135.293 253.309 135.293C252.504 135.293 251.809 135.121 251.223 134.777C250.645 134.426 250.168 133.977 249.793 133.43C249.418 132.875 249.141 132.258 248.961 131.578C248.789 130.891 248.703 130.207 248.703 129.527C248.703 128.715 248.828 127.926 249.078 127.16C249.328 126.387 249.707 125.703 250.215 125.109C250.723 124.516 251.359 124.039 252.125 123.68C252.891 123.32 253.789 123.141 254.82 123.141C255.008 123.141 255.211 123.152 255.43 123.176C255.648 123.199 255.859 123.227 256.062 123.258C256.273 123.281 256.461 123.312 256.625 123.352C256.797 123.383 256.93 123.41 257.023 123.434V119.039H255.207V118.242L258.301 117.316H259.262V133.465C259.262 133.613 259.309 133.734 259.402 133.828C259.496 133.922 259.617 133.977 259.766 133.992L260.797 134.062V135H257.023ZM257.023 124.652C256.922 124.621 256.789 124.586 256.625 124.547C256.469 124.5 256.297 124.461 256.109 124.43C255.93 124.391 255.738 124.359 255.535 124.336C255.34 124.312 255.156 124.301 254.984 124.301C254.391 124.301 253.852 124.418 253.367 124.652C252.883 124.879 252.469 125.203 252.125 125.625C251.789 126.039 251.527 126.543 251.34 127.137C251.16 127.73 251.07 128.391 251.07 129.117C251.07 129.773 251.148 130.379 251.305 130.934C251.461 131.48 251.688 131.957 251.984 132.363C252.281 132.77 252.645 133.086 253.074 133.312C253.504 133.539 253.996 133.652 254.551 133.652C254.793 133.652 255.027 133.629 255.254 133.582C255.48 133.527 255.699 133.461 255.91 133.383C256.121 133.297 256.32 133.207 256.508 133.113C256.695 133.012 256.867 132.914 257.023 132.82V124.652ZM286.344 134.449C286.312 134.465 286.16 134.523 285.887 134.625C285.613 134.719 285.258 134.824 284.82 134.941C284.383 135.051 283.879 135.152 283.309 135.246C282.746 135.34 282.16 135.387 281.551 135.387C280.652 135.387 279.82 135.277 279.055 135.059C278.297 134.848 277.605 134.551 276.98 134.168C276.363 133.785 275.816 133.328 275.34 132.797C274.871 132.266 274.473 131.688 274.145 131.062C273.824 130.438 273.582 129.773 273.418 129.07C273.254 128.367 273.172 127.648 273.172 126.914C273.172 125.672 273.375 124.535 273.781 123.504C274.188 122.473 274.758 121.59 275.492 120.855C276.227 120.113 277.109 119.539 278.141 119.133C279.172 118.719 280.316 118.512 281.574 118.512C281.965 118.512 282.34 118.535 282.699 118.582C283.066 118.621 283.438 118.68 283.812 118.758C284.188 118.836 284.582 118.934 284.996 119.051C285.41 119.168 285.859 119.301 286.344 119.449V123.211H284.902L284.551 121.031C284.52 120.898 284.461 120.785 284.375 120.691C284.289 120.59 284.211 120.52 284.141 120.48L284.047 120.434C283.945 120.387 283.816 120.332 283.66 120.27C283.504 120.199 283.324 120.137 283.121 120.082C282.926 120.02 282.707 119.969 282.465 119.93C282.223 119.883 281.965 119.859 281.691 119.859C280.871 119.859 280.109 120.012 279.406 120.316C278.703 120.621 278.094 121.07 277.578 121.664C277.062 122.258 276.656 122.996 276.359 123.879C276.07 124.754 275.926 125.766 275.926 126.914C275.926 128.031 276.062 129.031 276.336 129.914C276.617 130.797 277.02 131.547 277.543 132.164C278.066 132.781 278.703 133.254 279.453 133.582C280.203 133.902 281.055 134.062 282.008 134.062C282.289 134.062 282.543 134.043 282.77 134.004C283.004 133.965 283.207 133.922 283.379 133.875C283.551 133.82 283.684 133.773 283.777 133.734C283.871 133.688 283.926 133.66 283.941 133.652C284.066 133.605 284.168 133.539 284.246 133.453C284.324 133.367 284.375 133.273 284.398 133.172L284.949 130.559H286.344V134.449ZM296.621 135V133.629C296.418 133.785 296.168 133.961 295.871 134.156C295.582 134.352 295.266 134.535 294.922 134.707C294.586 134.871 294.23 135.008 293.855 135.117C293.488 135.234 293.129 135.293 292.777 135.293C292.262 135.293 291.797 135.215 291.383 135.059C290.977 134.91 290.629 134.68 290.34 134.367C290.059 134.047 289.84 133.645 289.684 133.16C289.535 132.668 289.461 132.082 289.461 131.402V124.898H287.785V124.078L290.738 123.141H291.699V130.945C291.699 131.367 291.738 131.746 291.816 132.082C291.902 132.418 292.035 132.703 292.215 132.938C292.402 133.172 292.645 133.352 292.941 133.477C293.238 133.594 293.598 133.652 294.02 133.652C294.262 133.652 294.508 133.629 294.758 133.582C295.008 133.535 295.246 133.477 295.473 133.406C295.699 133.328 295.91 133.25 296.105 133.172C296.309 133.086 296.48 133.008 296.621 132.938V124.898H294.934V124.078L297.863 123.141H298.848V133.465C298.848 133.613 298.898 133.734 299 133.828C299.109 133.922 299.234 133.977 299.375 133.992L300.43 134.062V135H296.621ZM309.148 125.883C308.992 125.703 308.812 125.551 308.609 125.426C308.406 125.293 308.156 125.227 307.859 125.227C307.469 125.227 307.074 125.359 306.676 125.625C306.277 125.883 305.871 126.246 305.457 126.715V133.465C305.457 133.613 305.504 133.738 305.598 133.84C305.691 133.934 305.812 133.984 305.961 133.992L307.543 134.062V135H301.543V134.086L302.727 133.992C302.867 133.977 302.984 133.922 303.078 133.828C303.18 133.734 303.23 133.613 303.23 133.465V125.133H301.496V124.348L304.473 123.434H305.457V125.566C305.629 125.379 305.836 125.148 306.078 124.875C306.328 124.594 306.594 124.324 306.875 124.066C307.156 123.809 307.445 123.59 307.742 123.41C308.047 123.23 308.34 123.141 308.621 123.141C308.746 123.141 308.879 123.152 309.02 123.176C309.16 123.199 309.297 123.23 309.43 123.27C309.562 123.301 309.684 123.34 309.793 123.387C309.91 123.426 310.008 123.465 310.086 123.504V125.883H309.148ZM318.547 125.883C318.391 125.703 318.211 125.551 318.008 125.426C317.805 125.293 317.555 125.227 317.258 125.227C316.867 125.227 316.473 125.359 316.074 125.625C315.676 125.883 315.27 126.246 314.855 126.715V133.465C314.855 133.613 314.902 133.738 314.996 133.84C315.09 133.934 315.211 133.984 315.359 133.992L316.941 134.062V135H310.941V134.086L312.125 133.992C312.266 133.977 312.383 133.922 312.477 133.828C312.578 133.734 312.629 133.613 312.629 133.465V125.133H310.895V124.348L313.871 123.434H314.855V125.566C315.027 125.379 315.234 125.148 315.477 124.875C315.727 124.594 315.992 124.324 316.273 124.066C316.555 123.809 316.844 123.59 317.141 123.41C317.445 123.23 317.738 123.141 318.02 123.141C318.145 123.141 318.277 123.152 318.418 123.176C318.559 123.199 318.695 123.23 318.828 123.27C318.961 123.301 319.082 123.34 319.191 123.387C319.309 123.426 319.406 123.465 319.484 123.504V125.883H318.547ZM324.969 119.473C324.969 119.676 324.93 119.871 324.852 120.059C324.781 120.238 324.68 120.395 324.547 120.527C324.414 120.66 324.258 120.766 324.078 120.844C323.906 120.922 323.719 120.961 323.516 120.961C323.312 120.961 323.117 120.922 322.93 120.844C322.75 120.766 322.594 120.66 322.461 120.527C322.328 120.395 322.223 120.238 322.145 120.059C322.066 119.871 322.027 119.676 322.027 119.473C322.027 119.27 322.066 119.078 322.145 118.898C322.223 118.719 322.328 118.562 322.461 118.43C322.594 118.297 322.75 118.195 322.93 118.125C323.117 118.047 323.312 118.008 323.516 118.008C323.719 118.008 323.906 118.047 324.078 118.125C324.258 118.195 324.414 118.297 324.547 118.43C324.68 118.562 324.781 118.719 324.852 118.898C324.93 119.078 324.969 119.27 324.969 119.473ZM320.562 135V134.062L321.734 133.992C321.883 133.977 322.004 133.922 322.098 133.828C322.191 133.734 322.238 133.613 322.238 133.465V124.898H320.586V124.055L323.516 123.141H324.465V133.465C324.465 133.613 324.512 133.734 324.605 133.828C324.707 133.922 324.828 133.977 324.969 133.992L326.199 134.062V135H320.562ZM337.977 133.805C337.641 134.016 337.289 134.211 336.922 134.391C336.562 134.57 336.188 134.727 335.797 134.859C335.414 134.992 335.023 135.098 334.625 135.176C334.227 135.254 333.824 135.293 333.418 135.293C332.691 135.293 331.992 135.172 331.32 134.93C330.648 134.68 330.055 134.309 329.539 133.816C329.031 133.324 328.621 132.707 328.309 131.965C328.004 131.215 327.852 130.34 327.852 129.34C327.852 128.402 327.992 127.555 328.273 126.797C328.555 126.031 328.945 125.379 329.445 124.84C329.945 124.293 330.539 123.875 331.227 123.586C331.914 123.289 332.668 123.141 333.488 123.141C334.23 123.141 334.883 123.266 335.445 123.516C336.008 123.758 336.477 124.098 336.852 124.535C337.227 124.965 337.508 125.484 337.695 126.094C337.883 126.695 337.977 127.352 337.977 128.062V128.379C337.977 128.504 337.969 128.621 337.953 128.73H330.172C330.172 129.34 330.234 129.949 330.359 130.559C330.492 131.168 330.711 131.715 331.016 132.199C331.32 132.684 331.73 133.078 332.246 133.383C332.762 133.68 333.406 133.828 334.18 133.828C334.523 133.828 334.863 133.785 335.199 133.699C335.535 133.605 335.863 133.488 336.184 133.348C336.512 133.207 336.824 133.051 337.121 132.879C337.418 132.699 337.703 132.52 337.977 132.34V133.805ZM335.574 127.125C335.574 126.727 335.527 126.359 335.434 126.023C335.34 125.68 335.195 125.383 335 125.133C334.812 124.883 334.57 124.688 334.273 124.547C333.984 124.398 333.641 124.324 333.242 124.324C332.844 124.324 332.473 124.402 332.129 124.559C331.785 124.707 331.48 124.926 331.215 125.215C330.957 125.504 330.746 125.855 330.582 126.27C330.426 126.676 330.332 127.137 330.301 127.652H335.574V127.125ZM347 125.883C346.844 125.703 346.664 125.551 346.461 125.426C346.258 125.293 346.008 125.227 345.711 125.227C345.32 125.227 344.926 125.359 344.527 125.625C344.129 125.883 343.723 126.246 343.309 126.715V133.465C343.309 133.613 343.355 133.738 343.449 133.84C343.543 133.934 343.664 133.984 343.812 133.992L345.395 134.062V135H339.395V134.086L340.578 133.992C340.719 133.977 340.836 133.922 340.93 133.828C341.031 133.734 341.082 133.613 341.082 133.465V125.133H339.348V124.348L342.324 123.434H343.309V125.566C343.48 125.379 343.688 125.148 343.93 124.875C344.18 124.594 344.445 124.324 344.727 124.066C345.008 123.809 345.297 123.59 345.594 123.41C345.898 123.23 346.191 123.141 346.473 123.141C346.598 123.141 346.73 123.152 346.871 123.176C347.012 123.199 347.148 123.23 347.281 123.27C347.414 123.301 347.535 123.34 347.645 123.387C347.762 123.426 347.859 123.465 347.938 123.504V125.883H347Z" fill="url(#paint5_linear_81_25)"/>
<defs>
<linearGradient id="paint0_linear_81_25" x1="58" y1="32" x2="1.58076e-06" y2="98.5" gradientUnits="userSpaceOnUse">
<stop stop-color="white"/>
<stop offset="1" stop-color="#919191"/>
</linearGradient>
<linearGradient id="paint1_linear_81_25" x1="84" y1="32" x2="26" y2="98.5" gradientUnits="userSpaceOnUse">
<stop stop-color="white"/>
<stop offset="1" stop-color="#919191"/>
</linearGradient>
<linearGradient id="paint2_linear_81_25" x1="58" y1="75" x2="1.58076e-06" y2="141.5" gradientUnits="userSpaceOnUse">
<stop stop-color="white"/>
<stop offset="1" stop-color="#919191"/>
</linearGradient>
<linearGradient id="paint3_linear_81_25" x1="84" y1="75" x2="26" y2="141.5" gradientUnits="userSpaceOnUse">
<stop stop-color="white"/>
<stop offset="1" stop-color="#919191"/>
</linearGradient>
<linearGradient id="paint4_linear_81_25" x1="283" y1="7" x2="283" y2="127" gradientUnits="userSpaceOnUse">
<stop stop-color="white"/>
<stop offset="1" stop-color="#979797"/>
</linearGradient>
<linearGradient id="paint5_linear_81_25" x1="234" y1="112" x2="234" y2="142" gradientUnits="userSpaceOnUse">
<stop stop-color="white"/>
<stop offset="1" stop-color="#8C8C8C"/>
</linearGradient>
</defs>
</svg>
