<svg width="415" height="150" viewBox="0 0 415 150" fill="none" xmlns="http://www.w3.org/2000/svg">
<path d="M0 29L23 41V127L0 113V29Z" fill="url(#paint0_linear_81_9)"/>
<path d="M33 29L56 41V127L33 113V29Z" fill="url(#paint1_linear_81_9)"/>
<path d="M66 29L89 41V127L66 113V29Z" fill="url(#paint2_linear_81_9)"/>
<path d="M125.08 90V35.12H141.48L150.12 65.68C150.44 66.7467 150.76 67.9467 151.08 69.28C151.4 70.6133 151.693 71.8933 151.96 73.12C152.28 74.3467 152.52 75.4133 152.68 76.32H153.32C153.427 75.52 153.587 74.5333 153.8 73.36C154.013 72.1867 154.253 70.9333 154.52 69.6C154.84 68.2133 155.187 66.88 155.56 65.6L164.2 35.12H180.44V90H170.04V62.24C170.04 59.7867 170.067 57.3333 170.12 54.88C170.173 52.4267 170.227 50.32 170.28 48.56C170.387 46.8 170.44 45.76 170.44 45.44H169.8C169.693 45.92 169.427 46.96 169 48.56C168.573 50.16 168.12 51.8933 167.64 53.76C167.16 55.6267 166.733 57.2267 166.36 58.56L157.32 90H147.72L138.68 58.64C138.36 57.52 137.987 56.1867 137.56 54.64C137.187 53.04 136.787 51.4133 136.36 49.76C135.987 48.1067 135.64 46.6667 135.32 45.44H134.68C134.733 46.88 134.787 48.6133 134.84 50.64C134.893 52.6133 134.947 54.64 135 56.72C135.053 58.7467 135.08 60.5867 135.08 62.24V90H125.08ZM204.9 90.96C203.727 90.96 202.367 90.8 200.82 90.48C199.327 90.2133 197.86 89.68 196.42 88.88C195.033 88.08 193.887 86.9067 192.98 85.36C192.073 83.76 191.62 81.68 191.62 79.12C191.62 76.24 192.26 73.8667 193.54 72C194.82 70.08 196.607 68.5867 198.9 67.52C201.247 66.4 204.02 65.6267 207.22 65.2C210.473 64.72 214.02 64.48 217.86 64.48V61.04C217.86 59.8133 217.673 58.72 217.3 57.76C216.927 56.8 216.233 56.0533 215.22 55.52C214.26 54.9333 212.793 54.64 210.82 54.64C208.847 54.64 207.3 54.88 206.18 55.36C205.06 55.84 204.287 56.4267 203.86 57.12C203.433 57.8133 203.22 58.5333 203.22 59.28V60.4H193.78C193.727 60.1333 193.7 59.8667 193.7 59.6C193.7 59.3333 193.7 59.0133 193.7 58.64C193.7 56.24 194.42 54.16 195.86 52.4C197.3 50.64 199.3 49.3067 201.86 48.4C204.42 47.44 207.38 46.96 210.74 46.96C214.58 46.96 217.727 47.4933 220.18 48.56C222.687 49.6267 224.553 51.1467 225.78 53.12C227.007 55.0933 227.62 57.4933 227.62 60.32V80.16C227.62 81.1733 227.913 81.8933 228.5 82.32C229.087 82.7467 229.727 82.96 230.42 82.96H232.98V89.68C232.447 89.8933 231.673 90.1333 230.66 90.4C229.647 90.72 228.393 90.88 226.9 90.88C225.513 90.88 224.26 90.64 223.14 90.16C222.073 89.7333 221.167 89.0933 220.42 88.24C219.673 87.3867 219.14 86.3733 218.82 85.2H218.34C217.433 86.32 216.34 87.3333 215.06 88.24C213.833 89.0933 212.367 89.76 210.66 90.24C209.007 90.72 207.087 90.96 204.9 90.96ZM207.86 82.96C209.46 82.96 210.873 82.72 212.1 82.24C213.38 81.76 214.42 81.0933 215.22 80.24C216.073 79.3867 216.713 78.3467 217.14 77.12C217.62 75.8933 217.86 74.56 217.86 73.12V71.2C214.927 71.2 212.207 71.3867 209.7 71.76C207.247 72.1333 205.273 72.8267 203.78 73.84C202.34 74.8533 201.62 76.2933 201.62 78.16C201.62 79.12 201.833 79.9733 202.26 80.72C202.74 81.4133 203.433 81.9733 204.34 82.4C205.3 82.7733 206.473 82.96 207.86 82.96ZM240.953 90V47.92H249.113L249.913 54.56H250.473C251.006 53.2267 251.646 52 252.393 50.88C253.193 49.7067 254.206 48.7733 255.433 48.08C256.66 47.3333 258.153 46.96 259.913 46.96C260.766 46.96 261.54 47.04 262.233 47.2C262.98 47.36 263.54 47.52 263.913 47.68V56.88H260.953C259.3 56.88 257.833 57.12 256.553 57.6C255.273 58.0267 254.18 58.72 253.273 59.68C252.42 60.64 251.78 61.84 251.353 63.28C250.926 64.72 250.713 66.4 250.713 68.32V90H240.953ZM283.457 90.96C280.844 90.96 278.791 90.4533 277.297 89.44C275.804 88.3733 274.737 87.04 274.097 85.44C273.511 83.7867 273.217 82.1067 273.217 80.4V55.92H268.177V47.92H273.457L275.217 36.16H282.977V47.92H290.257V55.92H282.977V79.44C282.977 80.56 283.271 81.44 283.857 82.08C284.444 82.6667 285.324 82.96 286.497 82.96H290.257V89.68C289.724 89.8933 289.057 90.08 288.257 90.24C287.511 90.4533 286.711 90.6133 285.857 90.72C285.004 90.88 284.204 90.96 283.457 90.96ZM299.894 41.44V32.16H309.654V41.44H299.894ZM299.894 90V47.92H309.654V90H299.894ZM322.45 90V47.92H330.61L331.41 53.52H331.97C332.93 52.24 334.05 51.12 335.33 50.16C336.663 49.1467 338.157 48.3733 339.81 47.84C341.517 47.2533 343.383 46.96 345.41 46.96C348.077 46.96 350.423 47.44 352.45 48.4C354.53 49.36 356.157 50.9067 357.33 53.04C358.503 55.1733 359.09 58.0267 359.09 61.6V90H349.25V63.36C349.25 61.8667 349.063 60.64 348.69 59.68C348.37 58.6667 347.863 57.8667 347.17 57.28C346.53 56.64 345.73 56.1867 344.77 55.92C343.81 55.6533 342.743 55.52 341.57 55.52C339.81 55.52 338.21 55.9467 336.77 56.8C335.383 57.6533 334.263 58.8267 333.41 60.32C332.61 61.8133 332.21 63.5467 332.21 65.52V90H322.45ZM390.289 90.96C385.702 90.96 381.862 90.1867 378.769 88.64C375.675 87.04 373.355 84.6133 371.809 81.36C370.262 78.1067 369.489 73.9733 369.489 68.96C369.489 63.8933 370.262 59.76 371.809 56.56C373.355 53.3067 375.675 50.9067 378.769 49.36C381.862 47.76 385.702 46.96 390.289 46.96C394.929 46.96 398.769 47.76 401.809 49.36C404.902 50.9067 407.222 53.3067 408.769 56.56C410.315 59.76 411.089 63.8933 411.089 68.96C411.089 73.9733 410.315 78.1067 408.769 81.36C407.222 84.6133 404.902 87.04 401.809 88.64C398.769 90.1867 394.929 90.96 390.289 90.96ZM390.289 82.96C392.849 82.96 394.902 82.48 396.449 81.52C398.049 80.5067 399.195 79.0133 399.889 77.04C400.635 75.0133 401.009 72.5067 401.009 69.52V68.4C401.009 65.4133 400.635 62.9333 399.889 60.96C399.195 58.9333 398.049 57.44 396.449 56.48C394.902 55.4667 392.849 54.96 390.289 54.96C387.729 54.96 385.649 55.4667 384.049 56.48C382.502 57.44 381.355 58.9333 380.609 60.96C379.915 62.9333 379.569 65.4133 379.569 68.4V69.52C379.569 72.5067 379.915 75.0133 380.609 77.04C381.355 79.0133 382.502 80.5067 384.049 81.52C385.649 82.48 387.729 82.96 390.289 82.96Z" fill="url(#paint3_linear_81_9)"/>
<path opacity="0.6" d="M236.694 126.276C235.084 126.276 233.704 125.992 232.554 125.425C231.419 124.858 230.545 123.976 229.932 122.78C229.334 121.569 229.035 120.012 229.035 118.111C229.035 115.336 229.71 113.281 231.059 111.947C232.408 110.613 234.287 109.946 236.694 109.946C237.997 109.946 239.17 110.168 240.213 110.613C241.271 111.058 242.107 111.732 242.72 112.637C243.349 113.526 243.663 114.661 243.663 116.041H240.604C240.604 115.274 240.435 114.63 240.098 114.109C239.776 113.572 239.324 113.166 238.741 112.89C238.158 112.614 237.491 112.476 236.74 112.476C235.697 112.476 234.831 112.683 234.141 113.097C233.451 113.496 232.937 114.094 232.6 114.891C232.278 115.688 232.117 116.677 232.117 117.858V118.364C232.117 119.56 232.278 120.557 232.6 121.354C232.937 122.151 233.443 122.749 234.118 123.148C234.808 123.547 235.682 123.746 236.74 123.746C237.537 123.746 238.235 123.616 238.833 123.355C239.431 123.079 239.891 122.68 240.213 122.159C240.55 121.622 240.719 120.971 240.719 120.204H243.663C243.663 121.584 243.356 122.726 242.743 123.631C242.13 124.52 241.294 125.187 240.236 125.632C239.193 126.061 238.013 126.276 236.694 126.276ZM251.453 126.276C250.135 126.276 249.031 126.054 248.141 125.609C247.252 125.149 246.585 124.451 246.14 123.516C245.696 122.581 245.473 121.392 245.473 119.951C245.473 118.494 245.696 117.306 246.14 116.386C246.585 115.451 247.252 114.761 248.141 114.316C249.031 113.856 250.135 113.626 251.453 113.626C252.787 113.626 253.891 113.856 254.765 114.316C255.655 114.761 256.322 115.451 256.766 116.386C257.211 117.306 257.433 118.494 257.433 119.951C257.433 121.392 257.211 122.581 256.766 123.516C256.322 124.451 255.655 125.149 254.765 125.609C253.891 126.054 252.787 126.276 251.453 126.276ZM251.453 123.976C252.189 123.976 252.78 123.838 253.224 123.562C253.684 123.271 254.014 122.841 254.213 122.274C254.428 121.691 254.535 120.971 254.535 120.112V119.79C254.535 118.931 254.428 118.218 254.213 117.651C254.014 117.068 253.684 116.639 253.224 116.363C252.78 116.072 252.189 115.926 251.453 115.926C250.717 115.926 250.119 116.072 249.659 116.363C249.215 116.639 248.885 117.068 248.67 117.651C248.471 118.218 248.371 118.931 248.371 119.79V120.112C248.371 120.971 248.471 121.691 248.67 122.274C248.885 122.841 249.215 123.271 249.659 123.562C250.119 123.838 250.717 123.976 251.453 123.976ZM259.817 126V109.371H262.623V126H259.817ZM270.994 126.276C269.676 126.276 268.572 126.054 267.682 125.609C266.793 125.149 266.126 124.451 265.681 123.516C265.237 122.581 265.014 121.392 265.014 119.951C265.014 118.494 265.237 117.306 265.681 116.386C266.126 115.451 266.793 114.761 267.682 114.316C268.572 113.856 269.676 113.626 270.994 113.626C272.328 113.626 273.432 113.856 274.306 114.316C275.196 114.761 275.863 115.451 276.307 116.386C276.752 117.306 276.974 118.494 276.974 119.951C276.974 121.392 276.752 122.581 276.307 123.516C275.863 124.451 275.196 125.149 274.306 125.609C273.432 126.054 272.328 126.276 270.994 126.276ZM270.994 123.976C271.73 123.976 272.321 123.838 272.765 123.562C273.225 123.271 273.555 122.841 273.754 122.274C273.969 121.691 274.076 120.971 274.076 120.112V119.79C274.076 118.931 273.969 118.218 273.754 117.651C273.555 117.068 273.225 116.639 272.765 116.363C272.321 116.072 271.73 115.926 270.994 115.926C270.258 115.926 269.66 116.072 269.2 116.363C268.756 116.639 268.426 117.068 268.211 117.651C268.012 118.218 267.912 118.931 267.912 119.79V120.112C267.912 120.971 268.012 121.691 268.211 122.274C268.426 122.841 268.756 123.271 269.2 123.562C269.66 123.838 270.258 123.976 270.994 123.976ZM279.358 126V113.902H281.704L281.934 115.811H282.095C282.249 115.428 282.433 115.075 282.647 114.753C282.877 114.416 283.169 114.147 283.521 113.948C283.874 113.733 284.303 113.626 284.809 113.626C285.055 113.626 285.277 113.649 285.476 113.695C285.691 113.741 285.852 113.787 285.959 113.833V116.478H285.108C284.633 116.478 284.211 116.547 283.843 116.685C283.475 116.808 283.161 117.007 282.9 117.283C282.655 117.559 282.471 117.904 282.348 118.318C282.226 118.732 282.164 119.215 282.164 119.767V126H279.358ZM292.406 126.276C291.532 126.276 290.766 126.184 290.106 126C289.447 125.801 288.895 125.532 288.45 125.195C288.006 124.858 287.668 124.467 287.438 124.022C287.224 123.562 287.116 123.064 287.116 122.527C287.116 122.45 287.116 122.381 287.116 122.32C287.132 122.259 287.139 122.213 287.139 122.182H289.899C289.899 122.213 289.899 122.243 289.899 122.274C289.899 122.305 289.899 122.335 289.899 122.366C289.915 122.78 290.045 123.117 290.29 123.378C290.536 123.623 290.858 123.8 291.256 123.907C291.655 124.014 292.077 124.068 292.521 124.068C292.92 124.068 293.296 124.03 293.648 123.953C294.016 123.861 294.315 123.723 294.545 123.539C294.791 123.34 294.913 123.087 294.913 122.78C294.913 122.381 294.76 122.075 294.453 121.86C294.147 121.645 293.74 121.469 293.234 121.331C292.744 121.193 292.215 121.047 291.647 120.894C291.141 120.756 290.635 120.603 290.129 120.434C289.623 120.265 289.163 120.051 288.749 119.79C288.351 119.529 288.021 119.192 287.76 118.778C287.515 118.364 287.392 117.85 287.392 117.237C287.392 116.639 287.523 116.118 287.783 115.673C288.044 115.228 288.404 114.86 288.864 114.569C289.324 114.262 289.869 114.032 290.497 113.879C291.126 113.726 291.808 113.649 292.544 113.649C293.265 113.649 293.917 113.726 294.499 113.879C295.097 114.032 295.611 114.255 296.04 114.546C296.485 114.822 296.822 115.167 297.052 115.581C297.298 115.98 297.42 116.424 297.42 116.915C297.42 117.022 297.413 117.13 297.397 117.237C297.397 117.344 297.397 117.406 297.397 117.421H294.66V117.26C294.66 116.969 294.568 116.723 294.384 116.524C294.216 116.309 293.963 116.141 293.625 116.018C293.303 115.895 292.897 115.834 292.406 115.834C292.038 115.834 291.716 115.865 291.44 115.926C291.164 115.987 290.934 116.072 290.75 116.179C290.582 116.286 290.451 116.409 290.359 116.547C290.267 116.685 290.221 116.838 290.221 117.007C290.221 117.298 290.336 117.528 290.566 117.697C290.796 117.866 291.103 118.011 291.486 118.134C291.885 118.257 292.314 118.387 292.774 118.525C293.326 118.678 293.894 118.839 294.476 119.008C295.059 119.161 295.596 119.361 296.086 119.606C296.592 119.851 296.999 120.196 297.305 120.641C297.612 121.086 297.765 121.676 297.765 122.412C297.765 123.117 297.627 123.723 297.351 124.229C297.091 124.72 296.715 125.118 296.224 125.425C295.749 125.716 295.182 125.931 294.522 126.069C293.878 126.207 293.173 126.276 292.406 126.276ZM310.121 126.276C308.802 126.276 307.698 126.054 306.809 125.609C305.92 125.149 305.253 124.451 304.808 123.516C304.363 122.581 304.141 121.392 304.141 119.951C304.141 118.494 304.363 117.306 304.808 116.386C305.253 115.451 305.92 114.761 306.809 114.316C307.698 113.856 308.802 113.626 310.121 113.626C311.455 113.626 312.559 113.856 313.433 114.316C314.322 114.761 314.989 115.451 315.434 116.386C315.879 117.306 316.101 118.494 316.101 119.951C316.101 121.392 315.879 122.581 315.434 123.516C314.989 124.451 314.322 125.149 313.433 125.609C312.559 126.054 311.455 126.276 310.121 126.276ZM310.121 123.976C310.857 123.976 311.447 123.838 311.892 123.562C312.352 123.271 312.682 122.841 312.881 122.274C313.096 121.691 313.203 120.971 313.203 120.112V119.79C313.203 118.931 313.096 118.218 312.881 117.651C312.682 117.068 312.352 116.639 311.892 116.363C311.447 116.072 310.857 115.926 310.121 115.926C309.385 115.926 308.787 116.072 308.327 116.363C307.882 116.639 307.553 117.068 307.338 117.651C307.139 118.218 307.039 118.931 307.039 119.79V120.112C307.039 120.971 307.139 121.691 307.338 122.274C307.553 122.841 307.882 123.271 308.327 123.562C308.787 123.838 309.385 123.976 310.121 123.976ZM319.06 126V116.202H317.312V113.902H319.06V112.361C319.06 111.824 319.145 111.318 319.313 110.843C319.497 110.352 319.812 109.954 320.256 109.647C320.701 109.34 321.322 109.187 322.119 109.187C322.349 109.187 322.579 109.202 322.809 109.233C323.055 109.264 323.285 109.31 323.499 109.371C323.714 109.417 323.898 109.471 324.051 109.532V111.487H322.901C322.564 111.487 322.303 111.579 322.119 111.763C321.951 111.932 321.866 112.185 321.866 112.522V113.902H324.051V116.202H321.866V126H319.06ZM331.752 130.186C331.185 130.186 330.725 130.14 330.372 130.048C330.02 129.971 329.82 129.925 329.774 129.91V127.909H331.062C331.384 127.909 331.706 127.825 332.028 127.656C332.35 127.487 332.642 127.257 332.902 126.966C333.163 126.675 333.355 126.353 333.477 126L328.762 113.902H331.706L333.96 119.698C334.068 119.959 334.175 120.288 334.282 120.687C334.405 121.086 334.528 121.5 334.65 121.929C334.773 122.343 334.873 122.719 334.949 123.056H335.064C335.126 122.826 335.195 122.565 335.271 122.274C335.348 121.983 335.425 121.684 335.501 121.377C335.593 121.07 335.685 120.771 335.777 120.48C335.869 120.189 335.946 119.936 336.007 119.721L337.847 113.902H340.699L336.651 125.379C336.421 126.023 336.161 126.636 335.869 127.219C335.593 127.802 335.264 128.315 334.88 128.76C334.512 129.205 334.068 129.55 333.546 129.795C333.04 130.056 332.442 130.186 331.752 130.186ZM347.698 126.276C346.38 126.276 345.276 126.054 344.386 125.609C343.497 125.149 342.83 124.451 342.385 123.516C341.941 122.581 341.718 121.392 341.718 119.951C341.718 118.494 341.941 117.306 342.385 116.386C342.83 115.451 343.497 114.761 344.386 114.316C345.276 113.856 346.38 113.626 347.698 113.626C349.032 113.626 350.136 113.856 351.01 114.316C351.9 114.761 352.567 115.451 353.011 116.386C353.456 117.306 353.678 118.494 353.678 119.951C353.678 121.392 353.456 122.581 353.011 123.516C352.567 124.451 351.9 125.149 351.01 125.609C350.136 126.054 349.032 126.276 347.698 126.276ZM347.698 123.976C348.434 123.976 349.025 123.838 349.469 123.562C349.929 123.271 350.259 122.841 350.458 122.274C350.673 121.691 350.78 120.971 350.78 120.112V119.79C350.78 118.931 350.673 118.218 350.458 117.651C350.259 117.068 349.929 116.639 349.469 116.363C349.025 116.072 348.434 115.926 347.698 115.926C346.962 115.926 346.364 116.072 345.904 116.363C345.46 116.639 345.13 117.068 344.915 117.651C344.716 118.218 344.616 118.931 344.616 119.79V120.112C344.616 120.971 344.716 121.691 344.915 122.274C345.13 122.841 345.46 123.271 345.904 123.562C346.364 123.838 346.962 123.976 347.698 123.976ZM359.903 126.276C358.738 126.276 357.787 125.962 357.051 125.333C356.331 124.689 355.97 123.6 355.97 122.067V113.902H358.776V121.561C358.776 121.99 358.822 122.351 358.914 122.642C359.022 122.918 359.167 123.148 359.351 123.332C359.551 123.501 359.788 123.623 360.064 123.7C360.34 123.777 360.647 123.815 360.984 123.815C361.49 123.815 361.943 123.692 362.341 123.447C362.755 123.202 363.077 122.864 363.307 122.435C363.553 121.99 363.675 121.492 363.675 120.94V113.902H366.481V126H364.158L363.928 124.39H363.767C363.491 124.758 363.162 125.088 362.778 125.379C362.41 125.655 361.981 125.87 361.49 126.023C361.015 126.192 360.486 126.276 359.903 126.276ZM369.472 126V113.902H371.818L372.048 115.811H372.209C372.362 115.428 372.546 115.075 372.761 114.753C372.991 114.416 373.282 114.147 373.635 113.948C373.987 113.733 374.417 113.626 374.923 113.626C375.168 113.626 375.39 113.649 375.59 113.695C375.804 113.741 375.965 113.787 376.073 113.833V116.478H375.222C374.746 116.478 374.325 116.547 373.957 116.685C373.589 116.808 373.274 117.007 373.014 117.283C372.768 117.559 372.584 117.904 372.462 118.318C372.339 118.732 372.278 119.215 372.278 119.767V126H369.472ZM381.96 126V109.371H384.766V126H381.96ZM387.755 112.039V109.371H390.561V112.039H387.755ZM387.755 126V113.902H390.561V126H387.755ZM394.125 126V116.202H392.377V113.902H394.125V112.361C394.125 111.824 394.209 111.318 394.378 110.843C394.562 110.352 394.876 109.954 395.321 109.647C395.765 109.34 396.386 109.187 397.184 109.187C397.414 109.187 397.644 109.202 397.874 109.233C398.119 109.264 398.349 109.31 398.564 109.371C398.778 109.417 398.962 109.471 399.116 109.532V111.487H397.966C397.628 111.487 397.368 111.579 397.184 111.763C397.015 111.932 396.931 112.185 396.931 112.522V113.902H399.116V116.202H396.931V126H394.125ZM405.688 126.276C404.4 126.276 403.327 126.054 402.468 125.609C401.609 125.149 400.965 124.451 400.536 123.516C400.107 122.581 399.892 121.392 399.892 119.951C399.892 118.494 400.107 117.306 400.536 116.386C400.965 115.451 401.609 114.761 402.468 114.316C403.327 113.856 404.4 113.626 405.688 113.626C406.853 113.626 407.827 113.848 408.609 114.293C409.406 114.722 410.004 115.389 410.403 116.294C410.802 117.199 411.001 118.372 411.001 119.813V120.641H402.767C402.798 121.392 402.913 122.029 403.112 122.55C403.311 123.056 403.618 123.439 404.032 123.7C404.461 123.945 405.021 124.068 405.711 124.068C406.064 124.068 406.393 124.022 406.7 123.93C407.007 123.838 407.275 123.7 407.505 123.516C407.735 123.317 407.911 123.071 408.034 122.78C408.172 122.489 408.241 122.151 408.241 121.768H411.001C411.001 122.535 410.863 123.202 410.587 123.769C410.326 124.336 409.951 124.804 409.46 125.172C408.985 125.54 408.425 125.816 407.781 126C407.137 126.184 406.439 126.276 405.688 126.276ZM402.813 118.663H408.08C408.08 118.157 408.019 117.728 407.896 117.375C407.789 117.022 407.628 116.731 407.413 116.501C407.214 116.271 406.968 116.11 406.677 116.018C406.386 115.911 406.056 115.857 405.688 115.857C405.09 115.857 404.584 115.957 404.17 116.156C403.771 116.355 403.465 116.662 403.25 117.076C403.035 117.49 402.89 118.019 402.813 118.663Z" fill="url(#paint4_linear_81_9)"/>
<defs>
<linearGradient id="paint0_linear_81_9" x1="1.91632e-08" y1="69.5" x2="23" y2="70" gradientUnits="userSpaceOnUse">
<stop stop-color="white"/>
<stop offset="1" stop-color="#A9A9A9"/>
</linearGradient>
<linearGradient id="paint1_linear_81_9" x1="33" y1="69.5" x2="56" y2="70" gradientUnits="userSpaceOnUse">
<stop stop-color="white"/>
<stop offset="1" stop-color="#A9A9A9"/>
</linearGradient>
<linearGradient id="paint2_linear_81_9" x1="66" y1="69.5" x2="89" y2="70" gradientUnits="userSpaceOnUse">
<stop stop-color="white"/>
<stop offset="1" stop-color="#A9A9A9"/>
</linearGradient>
<linearGradient id="paint3_linear_81_9" x1="267" y1="20" x2="267" y2="107" gradientUnits="userSpaceOnUse">
<stop stop-color="white"/>
<stop offset="1" stop-color="#7B7B7B"/>
</linearGradient>
<linearGradient id="paint4_linear_81_9" x1="320" y1="106" x2="320" y2="131" gradientUnits="userSpaceOnUse">
<stop stop-color="white"/>
<stop offset="1" stop-color="#7B7B7B"/>
</linearGradient>
</defs>
</svg>
