<svg width="364" height="150" viewBox="0 0 364 150" fill="none" xmlns="http://www.w3.org/2000/svg">
<path d="M63 49C41.8 62.6 12.1667 61.3333 0 59V143C32.4 147.8 55.5 138 63 132.5V49Z" fill="url(#paint0_linear_80_10)"/>
<path d="M78 33C56.8 46.6 27.1667 45.3333 15 43V127C47.4 131.8 70.5 122 78 116.5V33Z" fill="url(#paint1_linear_80_10)"/>
<path d="M134.288 34.704C137.68 34.704 140.656 35.536 143.216 37.2C145.84 38.864 147.856 41.2 149.264 44.208C150.736 47.216 151.472 50.64 151.472 54.48C151.472 60.24 149.936 64.88 146.864 68.4C143.856 71.92 139.856 73.68 134.864 73.68H126.704C126.384 73.68 126.224 73.84 126.224 74.16V100.848C126.224 101.168 126.096 101.456 125.84 101.712C125.648 101.904 125.392 102 125.072 102H116.24C115.92 102 115.632 101.904 115.376 101.712C115.184 101.456 115.088 101.168 115.088 100.848V35.856C115.088 35.536 115.184 35.28 115.376 35.088C115.632 34.832 115.92 34.704 116.24 34.704H134.288ZM132.464 64.944C134.832 64.944 136.72 64.048 138.128 62.256C139.6 60.4 140.336 57.904 140.336 54.768C140.336 51.568 139.6 49.04 138.128 47.184C136.72 45.264 134.832 44.304 132.464 44.304H126.704C126.384 44.304 126.224 44.464 126.224 44.784V64.464C126.224 64.784 126.384 64.944 126.704 64.944H132.464ZM183.323 102C182.555 102 182.139 101.648 182.075 100.944L180.251 90.864C180.251 90.544 180.059 90.384 179.675 90.384H165.659C165.275 90.384 165.083 90.544 165.083 90.864L163.259 100.944C163.195 101.648 162.779 102 162.011 102H153.275C152.379 102 152.027 101.584 152.219 100.752L166.427 35.856C166.555 35.152 166.971 34.8 167.675 34.8H177.851C178.555 34.8 178.971 35.152 179.099 35.856L193.307 100.752V101.136C193.307 101.712 192.955 102 192.251 102H183.323ZM166.811 81.168C166.747 81.488 166.907 81.648 167.291 81.648H177.947C178.331 81.648 178.491 81.488 178.427 81.168L172.859 50.832C172.795 50.64 172.699 50.544 172.571 50.544C172.443 50.544 172.347 50.64 172.283 50.832L166.811 81.168ZM218.944 34.704C222.336 34.704 225.312 35.536 227.872 37.2C230.496 38.864 232.512 41.2 233.92 44.208C235.392 47.216 236.128 50.64 236.128 54.48C236.128 60.24 234.592 64.88 231.52 68.4C228.512 71.92 224.512 73.68 219.52 73.68H211.36C211.04 73.68 210.88 73.84 210.88 74.16V100.848C210.88 101.168 210.752 101.456 210.496 101.712C210.304 101.904 210.048 102 209.728 102H200.896C200.576 102 200.288 101.904 200.032 101.712C199.84 101.456 199.744 101.168 199.744 100.848V35.856C199.744 35.536 199.84 35.28 200.032 35.088C200.288 34.832 200.576 34.704 200.896 34.704H218.944ZM217.12 64.944C219.488 64.944 221.376 64.048 222.784 62.256C224.256 60.4 224.992 57.904 224.992 54.768C224.992 51.568 224.256 49.04 222.784 47.184C221.376 45.264 219.488 44.304 217.12 44.304H211.36C211.04 44.304 210.88 44.464 210.88 44.784V64.464C210.88 64.784 211.04 64.944 211.36 64.944H217.12ZM277.219 43.248C277.219 43.568 277.091 43.856 276.835 44.112C276.643 44.304 276.387 44.4 276.067 44.4H255.331C255.011 44.4 254.851 44.56 254.851 44.88V63.024C254.851 63.344 255.011 63.504 255.331 63.504H267.619C267.939 63.504 268.195 63.632 268.387 63.888C268.643 64.08 268.771 64.336 268.771 64.656V72.048C268.771 72.368 268.643 72.656 268.387 72.912C268.195 73.104 267.939 73.2 267.619 73.2H255.331C255.011 73.2 254.851 73.36 254.851 73.68V91.92C254.851 92.24 255.011 92.4 255.331 92.4H276.067C276.387 92.4 276.643 92.528 276.835 92.784C277.091 92.976 277.219 93.232 277.219 93.552V100.848C277.219 101.168 277.091 101.456 276.835 101.712C276.643 101.904 276.387 102 276.067 102H244.867C244.547 102 244.259 101.904 244.003 101.712C243.811 101.456 243.715 101.168 243.715 100.848V35.952C243.715 35.632 243.811 35.376 244.003 35.184C244.259 34.928 244.547 34.8 244.867 34.8H276.067C276.387 34.8 276.643 34.928 276.835 35.184C277.091 35.376 277.219 35.632 277.219 35.952V43.248ZM312.026 102C311.386 102 310.97 101.68 310.778 101.04L302.618 73.488C302.49 73.232 302.33 73.104 302.138 73.104H297.05C296.73 73.104 296.57 73.264 296.57 73.584V100.848C296.57 101.168 296.442 101.456 296.186 101.712C295.994 101.904 295.738 102 295.418 102H286.586C286.266 102 285.978 101.904 285.722 101.712C285.53 101.456 285.434 101.168 285.434 100.848V35.952C285.434 35.632 285.53 35.376 285.722 35.184C285.978 34.928 286.266 34.8 286.586 34.8H304.634C308.026 34.8 311.002 35.632 313.562 37.296C316.186 38.896 318.202 41.2 319.61 44.208C321.082 47.152 321.818 50.544 321.818 54.384C321.818 58.352 321.05 61.776 319.514 64.656C317.978 67.536 315.834 69.712 313.082 71.184C312.826 71.248 312.73 71.44 312.794 71.76L322.202 100.656C322.266 100.784 322.298 100.944 322.298 101.136C322.298 101.712 321.946 102 321.242 102H312.026ZM297.05 44.4C296.73 44.4 296.57 44.56 296.57 44.88V63.984C296.57 64.304 296.73 64.464 297.05 64.464H302.906C305.21 64.464 307.066 63.568 308.474 61.776C309.946 59.984 310.682 57.552 310.682 54.48C310.682 51.408 309.946 48.976 308.474 47.184C307.066 45.328 305.21 44.4 302.906 44.4H297.05ZM328.052 102C327.732 102 327.444 101.904 327.188 101.712C326.996 101.456 326.9 101.168 326.9 100.848V93.168C326.9 92.656 326.996 92.176 327.188 91.728L348.692 44.976C348.756 44.848 348.756 44.72 348.692 44.592C348.628 44.464 348.532 44.4 348.404 44.4H328.052C327.732 44.4 327.444 44.304 327.188 44.112C326.996 43.856 326.9 43.568 326.9 43.248V35.952C326.9 35.632 326.996 35.376 327.188 35.184C327.444 34.928 327.732 34.8 328.052 34.8H359.54C359.86 34.8 360.116 34.928 360.308 35.184C360.564 35.376 360.692 35.632 360.692 35.952V43.632C360.692 44.08 360.596 44.56 360.404 45.072L338.9 91.824C338.836 91.952 338.836 92.08 338.9 92.208C338.964 92.336 339.06 92.4 339.188 92.4H359.54C359.86 92.4 360.116 92.528 360.308 92.784C360.564 92.976 360.692 93.232 360.692 93.552V100.848C360.692 101.168 360.564 101.456 360.308 101.712C360.116 101.904 359.86 102 359.54 102H328.052Z" fill="url(#paint2_linear_80_10)"/>
<path opacity="0.6" d="M114.271 135C114.111 135 114.031 134.92 114.031 134.76V118.44C114.031 118.28 114.111 118.2 114.271 118.2H115.495C115.655 118.2 115.735 118.28 115.735 118.44V133.416C115.735 133.48 115.767 133.512 115.831 133.512H121.327C121.487 133.512 121.567 133.592 121.567 133.752V134.76C121.567 134.92 121.487 135 121.327 135H114.271ZM133.171 129.336C133.171 129.496 133.091 129.576 132.931 129.576H127.459C127.395 129.576 127.363 129.608 127.363 129.672V131.424C127.363 132.096 127.547 132.648 127.915 133.08C128.299 133.496 128.795 133.704 129.403 133.704C129.915 133.704 130.347 133.552 130.699 133.248C131.067 132.928 131.307 132.52 131.419 132.024C131.467 131.88 131.555 131.808 131.683 131.808L132.883 131.856C132.947 131.856 133.003 131.88 133.051 131.928C133.099 131.976 133.115 132.04 133.099 132.12C132.971 133.064 132.579 133.816 131.923 134.376C131.283 134.92 130.443 135.192 129.403 135.192C128.267 135.192 127.355 134.856 126.667 134.184C125.995 133.512 125.659 132.624 125.659 131.52V126.336C125.659 125.248 125.995 124.368 126.667 123.696C127.355 123.008 128.267 122.664 129.403 122.664C130.555 122.664 131.467 123.008 132.139 123.696C132.827 124.368 133.171 125.248 133.171 126.336V129.336ZM129.403 124.152C128.795 124.152 128.299 124.368 127.915 124.8C127.547 125.216 127.363 125.768 127.363 126.456V128.064C127.363 128.128 127.395 128.16 127.459 128.16H131.395C131.459 128.16 131.491 128.128 131.491 128.064V126.456C131.491 125.768 131.299 125.216 130.915 124.8C130.531 124.368 130.027 124.152 129.403 124.152ZM141.794 122.664C142.914 122.664 143.81 123.032 144.482 123.768C145.154 124.488 145.49 125.456 145.49 126.672V134.76C145.49 134.92 145.41 135 145.25 135H144.026C143.866 135 143.786 134.92 143.786 134.76V134.04C143.786 134.008 143.77 133.992 143.738 133.992C143.722 133.976 143.698 133.984 143.666 134.016C143.074 134.8 142.186 135.192 141.002 135.192C140.122 135.192 139.354 134.944 138.698 134.448C138.058 133.936 137.738 133.04 137.738 131.76C137.738 130.4 138.13 129.408 138.914 128.784C139.698 128.144 140.73 127.824 142.01 127.824H143.69C143.754 127.824 143.786 127.792 143.786 127.728V126.792C143.786 125.992 143.602 125.352 143.234 124.872C142.866 124.392 142.37 124.152 141.746 124.152C141.266 124.152 140.85 124.312 140.498 124.632C140.162 124.952 139.962 125.36 139.898 125.856C139.898 126.016 139.818 126.096 139.658 126.096L138.314 126.072C138.234 126.072 138.17 126.048 138.122 126C138.09 125.952 138.082 125.896 138.098 125.832C138.178 124.888 138.562 124.128 139.25 123.552C139.938 122.96 140.786 122.664 141.794 122.664ZM141.362 133.704C142.018 133.704 142.586 133.496 143.066 133.08C143.546 132.648 143.786 132.056 143.786 131.304V129.288C143.786 129.224 143.754 129.192 143.69 129.192H141.986C141.218 129.192 140.61 129.4 140.162 129.816C139.714 130.216 139.49 130.816 139.49 131.616C139.49 132.32 139.658 132.848 139.994 133.2C140.346 133.536 140.802 133.704 141.362 133.704ZM156.317 118.44C156.317 118.28 156.397 118.2 156.557 118.2H157.781C157.941 118.2 158.021 118.28 158.021 118.44V134.76C158.021 134.92 157.941 135 157.781 135H156.557C156.397 135 156.317 134.92 156.317 134.76V134.232C156.317 134.2 156.301 134.176 156.269 134.16C156.253 134.144 156.229 134.152 156.197 134.184C155.589 134.856 154.821 135.192 153.893 135.192C152.869 135.192 152.053 134.856 151.445 134.184C150.837 133.496 150.533 132.608 150.533 131.52V126.336C150.533 125.216 150.837 124.328 151.445 123.672C152.053 123 152.869 122.664 153.893 122.664C154.837 122.664 155.605 123.008 156.197 123.696C156.229 123.728 156.253 123.736 156.269 123.72C156.301 123.704 156.317 123.68 156.317 123.648V118.44ZM154.301 133.704C154.893 133.704 155.373 133.496 155.741 133.08C156.125 132.648 156.317 132.096 156.317 131.424V126.456C156.317 125.768 156.125 125.216 155.741 124.8C155.373 124.368 154.893 124.152 154.301 124.152C153.693 124.152 153.189 124.368 152.789 124.8C152.405 125.216 152.213 125.768 152.213 126.456V131.424C152.213 132.096 152.405 132.648 152.789 133.08C153.189 133.496 153.693 133.704 154.301 133.704ZM164.617 120.648C164.217 120.648 163.889 120.52 163.633 120.264C163.393 120.008 163.273 119.688 163.273 119.304C163.273 118.904 163.393 118.584 163.633 118.344C163.889 118.088 164.217 117.96 164.617 117.96C165.001 117.96 165.313 118.088 165.553 118.344C165.809 118.584 165.937 118.904 165.937 119.304C165.937 119.688 165.809 120.008 165.553 120.264C165.313 120.52 165.001 120.648 164.617 120.648ZM164.017 135C163.857 135 163.777 134.92 163.777 134.76V123.096C163.777 122.936 163.857 122.856 164.017 122.856H165.241C165.401 122.856 165.481 122.936 165.481 123.096V134.76C165.481 134.92 165.401 135 165.241 135H164.017ZM175.537 122.688C176.513 122.688 177.265 123.024 177.793 123.696C178.337 124.368 178.609 125.304 178.609 126.504V134.76C178.609 134.92 178.529 135 178.369 135H177.145C176.985 135 176.905 134.92 176.905 134.76V126.648C176.905 125.864 176.729 125.256 176.377 124.824C176.041 124.392 175.569 124.176 174.961 124.176C174.321 124.176 173.817 124.408 173.449 124.872C173.097 125.336 172.921 125.968 172.921 126.768V134.76C172.921 134.92 172.841 135 172.681 135H171.457C171.297 135 171.217 134.92 171.217 134.76V123.096C171.217 122.936 171.297 122.856 171.457 122.856H172.681C172.841 122.856 172.921 122.936 172.921 123.096V123.864C172.921 123.896 172.937 123.92 172.969 123.936C173.001 123.952 173.025 123.936 173.041 123.888C173.329 123.488 173.689 123.192 174.121 123C174.569 122.792 175.041 122.688 175.537 122.688ZM189.549 123.096C189.549 122.936 189.629 122.856 189.789 122.856H191.013C191.173 122.856 191.253 122.936 191.253 123.096V134.76C191.253 136.472 190.853 137.768 190.053 138.648C189.269 139.544 187.949 139.952 186.093 139.872C185.933 139.856 185.853 139.768 185.853 139.608V138.576C185.853 138.416 185.933 138.336 186.093 138.336C187.373 138.368 188.269 138.072 188.781 137.448C189.293 136.84 189.549 135.896 189.549 134.616V133.896C189.549 133.864 189.533 133.84 189.501 133.824C189.485 133.808 189.461 133.816 189.429 133.848C189.157 134.248 188.805 134.552 188.373 134.76C187.957 134.968 187.509 135.072 187.029 135.072C186.021 135.072 185.221 134.736 184.629 134.064C184.053 133.392 183.765 132.504 183.765 131.4V126.336C183.765 125.216 184.053 124.328 184.629 123.672C185.221 123 186.021 122.664 187.029 122.664C187.509 122.664 187.957 122.768 188.373 122.976C188.805 123.168 189.157 123.464 189.429 123.864C189.461 123.912 189.485 123.936 189.501 123.936C189.533 123.92 189.549 123.888 189.549 123.84V123.096ZM187.533 133.584C188.125 133.584 188.605 133.376 188.973 132.96C189.357 132.528 189.549 131.976 189.549 131.304V126.456C189.549 125.768 189.357 125.216 188.973 124.8C188.605 124.368 188.125 124.152 187.533 124.152C186.925 124.152 186.429 124.368 186.045 124.8C185.661 125.216 185.469 125.768 185.469 126.456V131.304C185.469 131.976 185.661 132.528 186.045 132.96C186.429 133.376 186.925 133.584 187.533 133.584ZM208.468 118.176C209.636 118.176 210.58 118.608 211.3 119.472C212.02 120.32 212.38 121.44 212.38 122.832C212.38 124.208 212.028 125.32 211.324 126.168C210.62 127 209.692 127.416 208.54 127.416H206.068C206.004 127.416 205.972 127.448 205.972 127.512V134.76C205.972 134.92 205.892 135 205.732 135H204.508C204.348 135 204.268 134.92 204.268 134.76V118.416C204.268 118.256 204.348 118.176 204.508 118.176H208.468ZM208.252 126.024C208.972 126.024 209.556 125.736 210.004 125.16C210.452 124.584 210.676 123.816 210.676 122.856C210.676 121.896 210.452 121.128 210.004 120.552C209.556 119.96 208.972 119.664 208.252 119.664H206.068C206.004 119.664 205.972 119.696 205.972 119.76V125.928C205.972 125.992 206.004 126.024 206.068 126.024H208.252ZM220.837 122.664C221.957 122.664 222.853 123.032 223.525 123.768C224.197 124.488 224.533 125.456 224.533 126.672V134.76C224.533 134.92 224.453 135 224.293 135H223.069C222.909 135 222.829 134.92 222.829 134.76V134.04C222.829 134.008 222.813 133.992 222.781 133.992C222.765 133.976 222.741 133.984 222.709 134.016C222.117 134.8 221.229 135.192 220.045 135.192C219.165 135.192 218.397 134.944 217.741 134.448C217.101 133.936 216.781 133.04 216.781 131.76C216.781 130.4 217.173 129.408 217.957 128.784C218.741 128.144 219.773 127.824 221.053 127.824H222.733C222.797 127.824 222.829 127.792 222.829 127.728V126.792C222.829 125.992 222.645 125.352 222.277 124.872C221.909 124.392 221.413 124.152 220.789 124.152C220.309 124.152 219.893 124.312 219.541 124.632C219.205 124.952 219.005 125.36 218.941 125.856C218.941 126.016 218.861 126.096 218.701 126.096L217.357 126.072C217.277 126.072 217.213 126.048 217.165 126C217.133 125.952 217.125 125.896 217.141 125.832C217.221 124.888 217.605 124.128 218.293 123.552C218.981 122.96 219.829 122.664 220.837 122.664ZM220.405 133.704C221.061 133.704 221.629 133.496 222.109 133.08C222.589 132.648 222.829 132.056 222.829 131.304V129.288C222.829 129.224 222.797 129.192 222.733 129.192H221.029C220.261 129.192 219.653 129.4 219.205 129.816C218.757 130.216 218.533 130.816 218.533 131.616C218.533 132.32 218.701 132.848 219.037 133.2C219.389 133.536 219.845 133.704 220.405 133.704ZM234.111 122.664C235.119 122.664 235.927 123.008 236.535 123.696C237.143 124.368 237.447 125.248 237.447 126.336V131.52C237.447 132.64 237.143 133.536 236.535 134.208C235.927 134.864 235.119 135.192 234.111 135.192C233.663 135.192 233.239 135.112 232.839 134.952C232.439 134.776 232.087 134.512 231.783 134.16C231.751 134.128 231.719 134.12 231.687 134.136C231.671 134.152 231.663 134.176 231.663 134.208V139.416C231.663 139.576 231.583 139.656 231.423 139.656H230.199C230.039 139.656 229.959 139.576 229.959 139.416V123.096C229.959 122.936 230.039 122.856 230.199 122.856H231.423C231.583 122.856 231.663 122.936 231.663 123.096V123.648C231.663 123.68 231.679 123.704 231.711 123.72C231.743 123.72 231.775 123.704 231.807 123.672C232.095 123.336 232.439 123.088 232.839 122.928C233.255 122.752 233.679 122.664 234.111 122.664ZM235.767 126.456C235.767 125.768 235.567 125.216 235.167 124.8C234.783 124.368 234.287 124.152 233.679 124.152C233.087 124.152 232.599 124.368 232.215 124.8C231.847 125.216 231.663 125.768 231.663 126.456V131.4C231.663 132.088 231.847 132.648 232.215 133.08C232.599 133.496 233.087 133.704 233.679 133.704C234.287 133.704 234.783 133.496 235.167 133.08C235.567 132.648 235.767 132.088 235.767 131.4V126.456ZM249.993 129.336C249.993 129.496 249.913 129.576 249.753 129.576H244.281C244.217 129.576 244.185 129.608 244.185 129.672V131.424C244.185 132.096 244.369 132.648 244.737 133.08C245.121 133.496 245.617 133.704 246.225 133.704C246.737 133.704 247.169 133.552 247.521 133.248C247.889 132.928 248.129 132.52 248.241 132.024C248.289 131.88 248.377 131.808 248.505 131.808L249.705 131.856C249.769 131.856 249.825 131.88 249.873 131.928C249.921 131.976 249.937 132.04 249.921 132.12C249.793 133.064 249.401 133.816 248.745 134.376C248.105 134.92 247.265 135.192 246.225 135.192C245.089 135.192 244.177 134.856 243.489 134.184C242.817 133.512 242.481 132.624 242.481 131.52V126.336C242.481 125.248 242.817 124.368 243.489 123.696C244.177 123.008 245.089 122.664 246.225 122.664C247.377 122.664 248.289 123.008 248.961 123.696C249.649 124.368 249.993 125.248 249.993 126.336V129.336ZM246.225 124.152C245.617 124.152 245.121 124.368 244.737 124.8C244.369 125.216 244.185 125.768 244.185 126.456V128.064C244.185 128.128 244.217 128.16 244.281 128.16H248.217C248.281 128.16 248.313 128.128 248.313 128.064V126.456C248.313 125.768 248.121 125.216 247.737 124.8C247.353 124.368 246.849 124.152 246.225 124.152ZM259.262 122.736C259.662 122.736 260.006 122.824 260.294 123C260.406 123.064 260.446 123.168 260.414 123.312L260.126 124.56C260.11 124.704 260.014 124.752 259.838 124.704C259.646 124.608 259.406 124.56 259.118 124.56C258.99 124.56 258.894 124.568 258.83 124.584C258.254 124.616 257.782 124.92 257.414 125.496C257.046 126.056 256.862 126.744 256.862 127.56V134.76C256.862 134.92 256.782 135 256.622 135H255.398C255.238 135 255.158 134.92 255.158 134.76V123.096C255.158 122.936 255.238 122.856 255.398 122.856H256.622C256.782 122.856 256.862 122.936 256.862 123.096V124.536C256.862 124.584 256.87 124.608 256.886 124.608C256.918 124.608 256.95 124.592 256.982 124.56C257.446 123.344 258.206 122.736 259.262 122.736ZM276.187 135.192C274.955 135.192 273.963 134.816 273.211 134.064C272.475 133.312 272.107 132.304 272.107 131.04V122.136C272.107 120.888 272.475 119.888 273.211 119.136C273.963 118.384 274.955 118.008 276.187 118.008C277.435 118.008 278.427 118.384 279.163 119.136C279.915 119.872 280.291 120.872 280.291 122.136V122.544C280.291 122.704 280.211 122.784 280.051 122.784L278.803 122.856C278.643 122.856 278.563 122.776 278.563 122.616V122.016C278.563 121.264 278.347 120.656 277.915 120.192C277.483 119.728 276.907 119.496 276.187 119.496C275.483 119.496 274.907 119.728 274.459 120.192C274.027 120.656 273.811 121.264 273.811 122.016V131.184C273.811 131.936 274.027 132.544 274.459 133.008C274.907 133.472 275.483 133.704 276.187 133.704C276.907 133.704 277.483 133.472 277.915 133.008C278.347 132.544 278.563 131.936 278.563 131.184V130.584C278.563 130.424 278.643 130.344 278.803 130.344L280.051 130.416C280.211 130.416 280.291 130.496 280.291 130.656V131.04C280.291 132.304 279.915 133.312 279.163 134.064C278.411 134.816 277.419 135.192 276.187 135.192ZM288.824 135.192C287.672 135.192 286.752 134.856 286.064 134.184C285.392 133.512 285.056 132.624 285.056 131.52V126.36C285.056 125.272 285.4 124.384 286.088 123.696C286.776 123.008 287.688 122.664 288.824 122.664C289.976 122.664 290.896 123.008 291.584 123.696C292.272 124.384 292.616 125.272 292.616 126.36V131.52C292.616 132.624 292.272 133.512 291.584 134.184C290.896 134.856 289.976 135.192 288.824 135.192ZM288.824 133.68C289.432 133.68 289.928 133.472 290.312 133.056C290.712 132.64 290.912 132.088 290.912 131.4V126.456C290.912 125.768 290.712 125.216 290.312 124.8C289.928 124.368 289.432 124.152 288.824 124.152C288.216 124.152 287.72 124.368 287.336 124.8C286.952 125.216 286.76 125.768 286.76 126.456V131.4C286.76 132.088 286.952 132.64 287.336 133.056C287.72 133.472 288.216 133.68 288.824 133.68ZM307.641 122.688C308.601 122.688 309.345 123.04 309.873 123.744C310.401 124.448 310.665 125.424 310.665 126.672V134.76C310.665 134.92 310.585 135 310.425 135H309.225C309.065 135 308.985 134.92 308.985 134.76V126.816C308.985 126 308.809 125.36 308.457 124.896C308.121 124.416 307.673 124.176 307.113 124.176C306.505 124.176 306.025 124.408 305.673 124.872C305.321 125.336 305.145 125.968 305.145 126.768V134.76C305.145 134.92 305.065 135 304.905 135H303.681C303.521 135 303.441 134.92 303.441 134.76V126.816C303.441 126 303.265 125.36 302.913 124.896C302.577 124.416 302.137 124.176 301.593 124.176C300.985 124.176 300.497 124.408 300.129 124.872C299.777 125.336 299.601 125.968 299.601 126.768V134.76C299.601 134.92 299.521 135 299.361 135H298.161C298.001 135 297.921 134.92 297.921 134.76V123.096C297.921 122.936 298.001 122.856 298.161 122.856H299.361C299.521 122.856 299.601 122.936 299.601 123.096V123.84C299.601 123.872 299.609 123.896 299.625 123.912C299.657 123.912 299.689 123.896 299.721 123.864C300.025 123.464 300.385 123.168 300.801 122.976C301.217 122.784 301.657 122.688 302.121 122.688C302.729 122.688 303.257 122.84 303.705 123.144C304.153 123.432 304.497 123.848 304.737 124.392C304.753 124.424 304.777 124.44 304.809 124.44C304.841 124.44 304.865 124.416 304.881 124.368C305.169 123.792 305.561 123.368 306.057 123.096C306.553 122.824 307.081 122.688 307.641 122.688ZM320.396 122.664C321.404 122.664 322.212 123.008 322.82 123.696C323.428 124.368 323.732 125.248 323.732 126.336V131.52C323.732 132.64 323.428 133.536 322.82 134.208C322.212 134.864 321.404 135.192 320.396 135.192C319.948 135.192 319.524 135.112 319.124 134.952C318.724 134.776 318.372 134.512 318.068 134.16C318.036 134.128 318.004 134.12 317.972 134.136C317.956 134.152 317.948 134.176 317.948 134.208V139.416C317.948 139.576 317.868 139.656 317.708 139.656H316.484C316.324 139.656 316.244 139.576 316.244 139.416V123.096C316.244 122.936 316.324 122.856 316.484 122.856H317.708C317.868 122.856 317.948 122.936 317.948 123.096V123.648C317.948 123.68 317.964 123.704 317.996 123.72C318.028 123.72 318.06 123.704 318.092 123.672C318.38 123.336 318.724 123.088 319.124 122.928C319.54 122.752 319.964 122.664 320.396 122.664ZM322.052 126.456C322.052 125.768 321.852 125.216 321.452 124.8C321.068 124.368 320.572 124.152 319.964 124.152C319.372 124.152 318.884 124.368 318.5 124.8C318.132 125.216 317.948 125.768 317.948 126.456V131.4C317.948 132.088 318.132 132.648 318.5 133.08C318.884 133.496 319.372 133.704 319.964 133.704C320.572 133.704 321.068 133.496 321.452 133.08C321.852 132.648 322.052 132.088 322.052 131.4V126.456ZM332.581 122.664C333.701 122.664 334.597 123.032 335.269 123.768C335.941 124.488 336.277 125.456 336.277 126.672V134.76C336.277 134.92 336.197 135 336.037 135H334.813C334.653 135 334.573 134.92 334.573 134.76V134.04C334.573 134.008 334.557 133.992 334.525 133.992C334.509 133.976 334.485 133.984 334.453 134.016C333.861 134.8 332.973 135.192 331.789 135.192C330.909 135.192 330.141 134.944 329.485 134.448C328.845 133.936 328.525 133.04 328.525 131.76C328.525 130.4 328.917 129.408 329.701 128.784C330.485 128.144 331.517 127.824 332.797 127.824H334.477C334.541 127.824 334.573 127.792 334.573 127.728V126.792C334.573 125.992 334.389 125.352 334.021 124.872C333.653 124.392 333.157 124.152 332.533 124.152C332.053 124.152 331.637 124.312 331.285 124.632C330.949 124.952 330.749 125.36 330.685 125.856C330.685 126.016 330.605 126.096 330.445 126.096L329.101 126.072C329.021 126.072 328.957 126.048 328.909 126C328.877 125.952 328.869 125.896 328.885 125.832C328.965 124.888 329.349 124.128 330.037 123.552C330.725 122.96 331.573 122.664 332.581 122.664ZM332.149 133.704C332.805 133.704 333.373 133.496 333.853 133.08C334.333 132.648 334.573 132.056 334.573 131.304V129.288C334.573 129.224 334.541 129.192 334.477 129.192H332.773C332.005 129.192 331.397 129.4 330.949 129.816C330.501 130.216 330.277 130.816 330.277 131.616C330.277 132.32 330.445 132.848 330.781 133.2C331.133 133.536 331.589 133.704 332.149 133.704ZM345.903 122.688C346.879 122.688 347.631 123.024 348.159 123.696C348.703 124.368 348.975 125.304 348.975 126.504V134.76C348.975 134.92 348.895 135 348.735 135H347.511C347.351 135 347.271 134.92 347.271 134.76V126.648C347.271 125.864 347.095 125.256 346.743 124.824C346.407 124.392 345.935 124.176 345.327 124.176C344.687 124.176 344.183 124.408 343.815 124.872C343.463 125.336 343.287 125.968 343.287 126.768V134.76C343.287 134.92 343.207 135 343.047 135H341.823C341.663 135 341.583 134.92 341.583 134.76V123.096C341.583 122.936 341.663 122.856 341.823 122.856H343.047C343.207 122.856 343.287 122.936 343.287 123.096V123.864C343.287 123.896 343.303 123.92 343.335 123.936C343.367 123.952 343.391 123.936 343.407 123.888C343.695 123.488 344.055 123.192 344.487 123C344.935 122.792 345.407 122.688 345.903 122.688ZM353.917 139.8C353.885 139.8 353.853 139.776 353.821 139.728C353.789 139.68 353.773 139.624 353.773 139.56V138.6C353.773 138.44 353.853 138.36 354.013 138.36C354.509 138.344 354.893 138.248 355.165 138.072C355.453 137.896 355.685 137.584 355.861 137.136C356.037 136.688 356.213 136 356.389 135.072C356.405 135.04 356.405 135.016 356.389 135C356.389 134.968 356.389 134.944 356.389 134.928L353.341 123.12L353.317 123.048C353.317 122.92 353.397 122.856 353.557 122.856H354.853C355.013 122.856 355.101 122.928 355.117 123.072L357.229 132.504C357.245 132.552 357.261 132.576 357.277 132.576C357.293 132.576 357.309 132.552 357.325 132.504L359.413 123.072C359.445 122.928 359.533 122.856 359.677 122.856L361.021 122.88C361.101 122.88 361.157 122.904 361.189 122.952C361.237 123 361.245 123.064 361.213 123.144L357.877 136.056C357.589 137.128 357.301 137.92 357.013 138.432C356.741 138.944 356.381 139.296 355.933 139.488C355.485 139.696 354.853 139.8 354.037 139.8H353.917Z" fill="url(#paint3_linear_80_10)"/>
<defs>
<linearGradient id="paint0_linear_80_10" x1="50.5" y1="51" x2="31.5" y2="144.285" gradientUnits="userSpaceOnUse">
<stop stop-color="white"/>
<stop offset="1" stop-color="#656565"/>
</linearGradient>
<linearGradient id="paint1_linear_80_10" x1="65.5" y1="35" x2="46.5" y2="128.285" gradientUnits="userSpaceOnUse">
<stop stop-color="white"/>
<stop offset="1" stop-color="#656565"/>
</linearGradient>
<linearGradient id="paint2_linear_80_10" x1="237" y1="6" x2="237" y2="121" gradientUnits="userSpaceOnUse">
<stop stop-color="white"/>
<stop offset="1" stop-color="#6A6A6A"/>
</linearGradient>
<linearGradient id="paint3_linear_80_10" x1="237" y1="111" x2="237" y2="140" gradientUnits="userSpaceOnUse">
<stop stop-color="white"/>
<stop offset="1" stop-color="#6F6F6F"/>
</linearGradient>
</defs>
</svg>
